ArcticonsSans.glyphspackage
{
glyphname = quotesingle;
kernLeft = quote;
kernRight = quote;
layers = (
{
layerId = m002;
shapes = (
{
attr = {
lineCapEnd = "1";
lineCapStart = "1";
strokeHeight = 100;
strokeWidth = 100;
};
closed = 0;
nodes = (
(80,630,l),
(80,850,l)
);
}
);
width = 160;
}
);
unicode = 39;
}
{
glyphname = plus;
layers = (
{
layerId = m002;
shapes = (
{
attr = {
lineCapEnd = 1;
lineCapStart = 1;
strokeHeight = 100;
strokeWidth = 100;
};
closed = 0;
nodes = (
(100,315,l),
(500,315,l)
);
},
{
attr = {
lineCapEnd = 1;
lineCapStart = 1;
strokeHeight = 100;
strokeWidth = 100;
};
closed = 0;
nodes = (
(300,515,l),
(300,115,l)
);
}
);
width = 600;
}
);
metricLeft = "-";
metricRight = "-";
unicode = 43;
}
{
glyphname = nine;
kernLeft = uppercaseRound;
kernRight = uppercaseRound;
layers = (
{
layerId = m002;
shapes = (
{
attr = {
strokeHeight = 100;
strokeWidth = 100;
};
closed = 1;
nodes = (
(100,731,o),
(219,850,o),
(365,850,c),
(512,850,o),
(630,731,o),
(630,585,c),
(630,439,o),
(512,320,o),
(365,320,c),
(219,320,o),
(100,439,o),
(100,585,c)
);
},
{
attr = {
lineCapEnd = 1;
lineCapStart = 1;
strokeHeight = 100;
strokeWidth = 100;
};
closed = 0;
nodes = (
(124,148,l),
(168,90,o),
(235,50,o),
(347,50,c),
(365,50,l),
(512,50,o),
(630,169,o),
(630,315,c),
(630,585,l)
);
}
);
width = 730;
}
);
unicode = 57;
}
{
glyphname = equal;
layers = (
{
layerId = m002;
shapes = (
{
attr = {
lineCapEnd = "1";
lineCapStart = "1";
strokeHeight = 100;
strokeWidth = 100;
};
closed = 0;
nodes = (
(100,165,l),
(600,165,l)
);
},
{
attr = {
lineCapEnd = "1";
lineCapStart = "1";
strokeHeight = 100;
strokeWidth = 100;
};
closed = 0;
nodes = (
(100,465,l),
(600,465,l)
);
}
);
width = 700;
}
);
unicode = 61;
}
{
glyphname = A;
kernLeft = A;
kernRight = A;
layers = (
{
anchors = (
{
name = bottom;
pos = (366,50);
},
{
name = ogonek;
pos = (682,100);
},
{
name = top;
pos = (366,900);
}
);
layerId = m002;
shapes = (
{
attr = {
lineCapEnd = 1;
lineCapStart = 1;
strokeHeight = 100;
strokeWidth = 100;
};
closed = 0;
nodes = (
(543,315,l),
(189,315,l)
);
},
{
attr = {
lineCapEnd = 1;
lineCapStart = 1;
strokeHeight = 100;
strokeWidth = 100;
};
closed = 0;
nodes = (
(101,50,l),
(366,850,l)
);
},
{
attr = {
lineCapEnd = 1;
lineCapStart = 1;
strokeHeight = 100;
strokeWidth = 100;
};
closed = 0;
nodes = (
(631,50,l),
(366,850,l)
);
}
);
width = 732;
}
);
unicode = 65;
}
{
glyphname = B;
kernLeft = uppercaseStraight;
layers = (
{
anchors = (
{
name = bottom;
pos = (365,50);
},
{
name = center;
pos = (365,475);
},
{
name = top;
pos = (365,900);
}
);
layerId = m002;
shapes = (
{
attr = {
lineCapEnd = 1;
lineCapStart = 1;
strokeHeight = 100;
strokeWidth = 100;
};
closed = 0;
nodes = (
(100,850,l),
(430,850,l),
(541,850,o),
(630,760,o),
(630,650,c),
(630,540,o),
(541,450,o),
(430,450,c),
(430,450,l)
);
},
{
attr = {
lineCapEnd = 1;
lineCapStart = 1;
strokeHeight = 100;
strokeWidth = 100;
};
closed = 0;
nodes = (
(430,450,l),
(100,450,l)
);
},
{
attr = {
lineCapEnd = 1;
lineCapStart = 1;
strokeHeight = 100;
strokeWidth = 100;
};
closed = 0;
nodes = (
(100,50,l),
(100,850,l)
);
},
{
attr = {
lineCapEnd = 1;
lineCapStart = 1;
strokeHeight = 100;
strokeWidth = 100;
};
closed = 0;
nodes = (
(430,450,l),
(541,450,o),
(630,360,o),
(630,250,c),
(630,140,o),
(541,50,o),
(430,50,c),
(100,50,l)
);
}
);
width = 730;
}
);
unicode = 66;
}
{
glyphname = K;
kernLeft = uppdercaseStraight;
kernRight = uppercaseDiagonal;
layers = (
{
anchors = (
{
name = bottom;
pos = (315,0);
},
{
name = top;
pos = (315,900);
}
);
layerId = m002;
shapes = (
{
attr = {
lineCapEnd = 1;
lineCapStart = 1;
strokeHeight = 100;
strokeWidth = 100;
};
closed = 0;
nodes = (
(100,850,l),
(100,50,l)
);
},
{
attr = {
lineCapEnd = 1;
lineCapStart = 1;
strokeHeight = 100;
strokeWidth = 100;
};
closed = 0;
nodes = (
(100,328,l),
(530,847,l)
);
},
{
attr = {
lineCapEnd = 1;
lineCapStart = 1;
strokeHeight = 100;
strokeWidth = 100;
};
closed = 0;
nodes = (
(530,50,l),
(201,450,l)
);
}
);
width = 630;
}
);
unicode = 75;
}
{
glyphname = M;
kernLeft = uppercaseStraight;
kernRight = uppercaseStraight;
layers = (
{
anchors = (
{
name = bottom;
pos = (500,50);
},
{
name = top;
pos = (500,900);
}
);
layerId = m002;
shapes = (
{
attr = {
lineCapEnd = 1;
lineCapStart = 1;
strokeHeight = 100;
strokeWidth = 100;
};
closed = 0;
nodes = (
(500,50,l),
(900,849,l)
);
},
{
attr = {
lineCapEnd = 1;
lineCapStart = 1;
strokeHeight = 100;
strokeWidth = 100;
};
closed = 0;
nodes = (
(100,51,l),
(100,850,l)
);
},
{
attr = {
lineCapEnd = 1;
lineCapStart = 1;
strokeHeight = 100;
strokeWidth = 100;
};
closed = 0;
nodes = (
(900,849,l),
(900,50,l)
);
},
{
attr = {
lineCapEnd = 1;
lineCapStart = 1;
strokeHeight = 100;
strokeWidth = 100;
};
closed = 0;
nodes = (
(100,850,l),
(500,50,l)
);
}
);
width = 1000;
}
);
unicode = 77;
}
{
glyphname = R;
kernLeft = uppercaseStraight;
layers = (
{
anchors = (
{
name = bottom;
pos = (365,50);
},
{
name = top;
pos = (365,900);
}
);
layerId = m002;
shapes = (
{
attr = {
lineCapEnd = 1;
lineCapStart = 1;
strokeHeight = 100;
strokeWidth = 100;
};
closed = 0;
nodes = (
(355,320,l),
(624,50,l)
);
},
{
attr = {
lineCapEnd = 1;
lineCapStart = 1;
strokeHeight = 100;
strokeWidth = 100;
};
closed = 0;
nodes = (
(100,50,l),
(100,850,l)
);
},
{
attr = {
lineCapEnd = 1;
lineCapStart = 1;
strokeHeight = 100;
strokeWidth = 100;
};
closed = 0;
nodes = (
(100,320,l),
(365,320,l),
(511,320,o),
(630,439,o),
(630,585,c),
(630,731,o),
(511,850,o),
(365,850,c),
(100,850,l)
);
}
);
width = 730;
}
);
unicode = 82;
}
{
glyphname = S;
kernLeft = S;
kernRight = S;
layers = (
{
anchors = (
{
name = bottom;
pos = (365,50);
},
{
name = top;
pos = (365,900);
}
);
layerId = m002;
shapes = (
{
attr = {
lineCapEnd = 1;
lineCapStart = 1;
strokeHeight = 100;
strokeWidth = 100;
};
closed = 0;
nodes = (
(116,138,l),
(165,74,o),
(226,50,o),
(312,50,c),
(430,50,l),
(541,50,o),
(630,139,o),
(630,250,cs),
(630,361,o),
(541,450,o),
(430,450,c),
(300,450,l),
(189,450,o),
(100,539,o),
(100,650,cs),
(100,760,o),
(190,850,o),
(300,850,c),
(418,850,l),
(504,850,o),
(565,826,o),
(614,762,c)
);
},
{
attr = {
lineCapEnd = 1;
lineCapStart = 1;
strokeHeight = 100;
strokeWidth = 100;
};
closed = 1;
nodes = (
(100,650,l)
);
},
{
attr = {
lineCapEnd = 1;
lineCapStart = 1;
strokeHeight = 100;
strokeWidth = 100;
};
closed = 1;
nodes = (
(630,250,l)
);
}
);
width = 730;
}
);
unicode = 83;
}
{
glyphname = T;
kernLeft = T;
kernRight = T;
layers = (
{
anchors = (
{
name = bottom;
pos = (365,0);
},
{
name = center;
pos = (365,475);
},
{
name = top;
pos = (365,900);
}
);
layerId = m002;
shapes = (
{
attr = {
lineCapEnd = 1;
lineCapStart = 1;
strokeHeight = 100;
strokeWidth = 100;
};
closed = 0;
nodes = (
(100,850,l),
(630,850,l)
);
},
{
attr = {
lineCapEnd = 1;
lineCapStart = 1;
strokeHeight = 100;
strokeWidth = 100;
};
closed = 0;
nodes = (
(365,50,l),
(365,850,l)
);
}
);
width = 730;
}
);
metricLeft = "=50";
metricRight = "=50";
unicode = 84;
}
{
glyphname = W;
kernLeft = uppercaseDiagonal;
kernRight = uppercaseDiagonal;
layers = (
{
anchors = (
{
name = bottom;
pos = (500,50);
},
{
name = top;
pos = (500,900);
}
);
layerId = m002;
shapes = (
{
attr = {
lineCapEnd = 1;
lineCapStart = 1;
strokeHeight = 100;
strokeWidth = 100;
};
closed = 0;
nodes = (
(900,850,l),
(700,50,l)
);
},
{
attr = {
lineCapEnd = 1;
lineCapStart = 1;
strokeHeight = 100;
strokeWidth = 100;
};
closed = 0;
nodes = (
(300,50,l),
(100,850,l)
);
},
{
attr = {
lineCapEnd = 1;
lineCapStart = 1;
strokeHeight = 100;
strokeWidth = 100;
};
closed = 0;
nodes = (
(500,850,l),
(300,50,l)
);
},
{
attr = {
lineCapEnd = 1;
lineCapStart = 1;
strokeHeight = 100;
strokeWidth = 100;
};
closed = 0;
nodes = (
(700,50,l),
(500,850,l)
);
}
);
width = 1000;
}
);
unicode = 87;
}
{
glyphname = asciicircum;
layers = (
{
layerId = m002;
shapes = (
{
attr = {
lineCapEnd = 1;
lineCapStart = 1;
strokeHeight = 100;
strokeWidth = 100;
};
closed = 0;
nodes = (
(270,850,l),
(100,670,l)
);
},
{
attr = {
lineCapEnd = 1;
lineCapStart = 1;
strokeHeight = 100;
strokeWidth = 100;
};
closed = 0;
nodes = (
(440,670,l),
(270,850,l)
);
}
);
width = 540;
}
);
unicode = 94;
}
{
glyphname = a;
kernLeft = lowercaseRound;
kernRight = lowercaseStraight;
layers = (
{
anchors = (
{
name = bottom;
pos = (300,0);
},
{
name = ogonek;
pos = (540,10);
},
{
name = top;
pos = (300,630);
}
);
layerId = m002;
shapes = (
{
attr = {
lineCapEnd = 1;
lineCapStart = 1;
strokeHeight = 100;
strokeWidth = 100;
};
closed = 0;
nodes = (
(500,50,l),
(500,580,l)
);
},
{
attr = {
lineCapEnd = 1;
lineCapStart = 1;
strokeHeight = 100;
strokeWidth = 100;
};
closed = 0;
nodes = (
(500,250,l),
(500,140,o),
(410,50,o),
(300,50,c),
(189,50,o),
(100,140,o),
(100,250,c),
(100,380,l),
(100,490,o),
(189,580,o),
(300,580,c),
(410,580,o),
(500,490,o),
(500,380,c)
);
}
);
width = 600;
}
);
unicode = 97;
}
{
glyphname = g;
kernLeft = lowercaseRound;
kernRight = lowercaseDescender;
layers = (
{
anchors = (
{
name = bottom;
pos = (300,-270);
},
{
name = top;
pos = (300,630);
}
);
layerId = m002;
shapes = (
{
attr = {
lineCapEnd = 2;
lineCapStart = 1;
strokeHeight = 100;
strokeWidth = 100;
};
closed = 0;
nodes = (
(500,580,l),
(500,-20,l),
(500,-131,o),
(411,-220,o),
(300,-220,c),
(300,-220,l),
(245,-220,o),
(195,-198,o),
(159,-162,c)
);
},
{
attr = {
lineCapEnd = 1;
lineCapStart = 1;
strokeHeight = 100;
strokeWidth = 100;
};
closed = 0;
nodes = (
(500,250,l),
(500,139,o),
(411,50,o),
(300,50,c),
(190,50,o),
(100,139,o),
(100,250,c),
(100,380,l),
(100,490,o),
(190,580,o),
(300,580,c),
(411,580,o),
(500,490,o),
(500,380,c)
);
}
);
width = 600;
}
);
unicode = 103;
}
{
glyphname = i;
kernLeft = i;
kernRight = i;
layers = (
{
anchors = (
{
name = bottom;
pos = (125,0);
}
);
layerId = m002;
shapes = (
{
attr = {
fill = 1;
strokePos = 1;
};
closed = 1;
nodes = (
(200,866,o),
(166,900,o),
(125,900,c),
(83,900,o),
(50,866,o),
(50,825,c),
(50,784,o),
(83,750,o),
(125,750,c),
(166,750,o),
(200,784,o),
(200,825,c)
);
},
{
pos = (20,0);
ref = idotless;
}
);
width = 250;
}
);
unicode = 105;
}
{
glyphname = n;
kernLeft = lowercaseStraight;
kernRight = lowercaseRounding;
layers = (
{
anchors = (
{
name = bottom;
pos = (300,0);
},
{
name = top;
pos = (300,630);
}
);
layerId = m002;
shapes = (
{
attr = {
lineCapEnd = 1;
lineCapStart = 1;
strokeHeight = 100;
strokeWidth = 100;
};
closed = 0;
nodes = (
(100,580,l),
(100,50,l)
);
},
{
attr = {
lineCapEnd = 1;
lineCapStart = 1;
strokeHeight = 100;
strokeWidth = 100;
};
closed = 0;
nodes = (
(100,380,l),
(100,490,o),
(190,580,o),
(300,580,c),
(411,580,o),
(500,490,o),
(500,380,c),
(500,50,l)
);
}
);
width = 600;
}
);
metricLeft = "=50";
metricRight = "=50";
unicode = 110;
}
{
glyphname = o;
kernLeft = lowercaseRound;
kernRight = lowercaseRound;
layers = (
{
anchors = (
{
name = bottom;
pos = (300,50);
},
{
name = center;
pos = (300,340);
},
{
name = ogonek;
pos = (410,109);
},
{
name = top;
pos = (300,630);
},
{
name = topright;
pos = (580,630);
}
);
layerId = m002;
shapes = (
{
attr = {
strokeHeight = 100;
strokeWidth = 100;
};
closed = 1;
nodes = (
(500,140,o),
(410,50,o),
(300,50,c),
(190,50,o),
(100,140,o),
(100,250,c),
(100,380,l),
(100,490,o),
(190,580,o),
(300,580,c),
(410,580,o),
(500,490,o),
(500,380,c),
(500,250,l)
);
}
);
width = 600;
}
);
unicode = 111;
}
{
glyphname = t;
kernLeft = lowerT;
kernRight = lowerT;
layers = (
{
anchors = (
{
name = bottom;
pos = (218,0);
},
{
name = center;
pos = (218,315);
},
{
name = top;
pos = (218,630);
},
{
name = topright;
pos = (415,1015);
}
);
layerId = m002;
shapes = (
{
attr = {
lineCapEnd = 1;
lineCapStart = 1;
strokeHeight = 100;
strokeWidth = 100;
};
closed = 0;
nodes = (
(205,745,l),
(205,150,l),
(205,95,o),
(250,50,o),
(305,50,c),
(335,50,l)
);
},
{
attr = {
lineCapEnd = 1;
lineCapStart = 1;
strokeHeight = 100;
strokeWidth = 100;
};
closed = 0;
nodes = (
(100,580,l),
(310,580,l)
);
}
);
width = 435;
}
);
unicode = 116;
}
{
glyphname = x;
kernLeft = lowercaseX;
kernRight = lowercaseX;
layers = (
{
anchors = (
{
name = bottom;
pos = (300,50);
},
{
name = top;
pos = (300,630);
}
);
layerId = m002;
shapes = (
{
attr = {
lineCapEnd = 1;
lineCapStart = 1;
strokeHeight = 100;
strokeWidth = 100;
};
closed = 0;
nodes = (
(500,580,l),
(100,50,l)
);
},
{
attr = {
lineCapEnd = 1;
lineCapStart = 1;
strokeHeight = 100;
strokeWidth = 100;
};
closed = 0;
nodes = (
(500,50,l),
(100,580,l)
);
}
);
width = 600;
}
);
unicode = 120;
}
{
glyphname = logicalnot;
layers = (
{
layerId = m002;
shapes = (
{
attr = {
lineCapEnd = 1;
lineCapStart = 1;
strokeHeight = 100;
strokeWidth = 100;
};
closed = 0;
nodes = (
(100,457,l),
(500,457,l)
);
},
{
attr = {
lineCapEnd = 1;
lineCapStart = 1;
strokeHeight = 100;
strokeWidth = 100;
};
closed = 0;
nodes = (
(500,457,l),
(500,257,l)
);
}
);
width = 600;
}
);
unicode = 172;
}
{
glyphname = twosuperior;
layers = (
{
layerId = m002;
shapes = (
{
attr = {
identifier = ID0x15af7d350;
lineCapEnd = 1;
lineCapStart = 1;
strokeHeight = 100;
strokeWidth = 100;
};
closed = 0;
nodes = (
(100,550,l),
(100,550,o),
(273,677,o),
(326,724,c),
(352,746,o),
(365,781,o),
(365,818,c),
(365,818,l),
(365,891,o),
(306,950,o),
(232,950,c),
(159,950,o),
(100,891,o),
(100,818,c)
);
},
{
attr = {
identifier = ID0x15af7d350;
lineCapEnd = 1;
lineCapStart = 1;
strokeHeight = 100;
strokeWidth = 100;
};
closed = 0;
nodes = (
(365,550,l),
(100,550,l)
);
}
);
width = 465;
}
);
metricLeft = two;
metricRight = two;
unicode = 178;
}
{
glyphname = onesuperior;
layers = (
{
layerId = m002;
shapes = (
{
attr = {
identifier = ID0x15af77bc0;
lineCapEnd = 1;
lineCapStart = 1;
strokeHeight = 100;
strokeWidth = 100;
};
closed = 0;
nodes = (
(200,950,l),
(200,550,l)
);
},
{
attr = {
identifier = ID0x15af77bc0;
lineCapEnd = 1;
lineCapStart = 1;
strokeHeight = 100;
strokeWidth = 100;
};
closed = 0;
nodes = (
(100,896,l),
(200,950,l)
);
}
);
width = 300;
}
);
metricLeft = one;
metricRight = one;
unicode = 185;
}
{
glyphname = threequarters;
layers = (
{
layerId = m002;
shapes = (
{
pos = (245,0);
ref = fraction;
},
{
attr = {
identifier = ID0x1184a9dd0;
lineCapEnd = "1";
lineCapStart = "1";
strokeHeight = 100;
strokeWidth = 100;
};
closed = 0;
nodes = (
(969,530,l),
(712,208,l)
);
},
{
attr = {
identifier = ID0x1184a9dd0;
lineCapEnd = "1";
lineCapStart = "1";
strokeHeight = 100;
strokeWidth = 100;
};
closed = 0;
nodes = (
(712,208,l),
(1030,208,l)
);
},
{
attr = {
identifier = ID0x1184a9dd0;
lineCapEnd = "1";
lineCapStart = "1";
strokeHeight = 100;
strokeWidth = 100;
};
closed = 0;
nodes = (
(969,50,l),
(969,530,l)
);
},
{
attr = {
identifier = ID0x2bc412590;
lineCapEnd = 1;
lineCapStart = 1;
strokeHeight = 100;
strokeWidth = 100;
};
closed = 0;
nodes = (
(100,810,l),
(134,837,o),
(169,850,o),
(249,850,c),
(268,850,l),
(335,850,o),
(388,796,o),
(388,730,c),
(388,664,o),
(335,610,o),
(268,610,c)
);
},
{
attr = {
identifier = ID0x2bc412590;
lineCapEnd = 1;
lineCapStart = 1;
strokeHeight = 100;
strokeWidth = 100;
};
closed = 0;
nodes = (
(100,410,l),
(134,383,o),
(169,370,o),
(249,370,c),
(268,370,l),
(335,370,o),
(388,424,o),
(388,490,c),
(388,556,o),
(335,610,o),
(268,610,c)
);
},
{
attr = {
identifier = ID0x2bc412590;
lineCapEnd = 1;
lineCapStart = 1;
strokeHeight = 100;
strokeWidth = 100;
};
closed = 0;
nodes = (
(176,610,l),
(269,610,l)
);
}
);
width = 1130;
}
);
unicode = 190;
}
{
glyphname = multiply;
layers = (
{
layerId = m002;
shapes = (
{
attr = {
lineCapEnd = 1;
lineCapStart = 1;
strokeHeight = 100;
strokeWidth = 100;
};
closed = 0;
nodes = (
(100,455,l),
(480,75,l)
);
},
{
attr = {
lineCapEnd = 1;
lineCapStart = 1;
strokeHeight = 100;
strokeWidth = 100;
};
closed = 0;
nodes = (
(480,455,l),
(100,75,l)
);
}
);
width = 580;
}
);
unicode = 215;
}
{
glyphname = oslash;
layers = (
{
anchors = (
{
name = top;
pos = (300,630);
}
);
layerId = m002;
shapes = (
{
ref = o;
},
{
attr = {
lineCapEnd = 1;
lineCapStart = 1;
strokeHeight = 100;
strokeWidth = 100;
};
closed = 0;
nodes = (
(100,50,l),
(500,580,l)
);
}
);
width = 600;
}
);
unicode = 248;
}
{
glyphname = thorn;
kernLeft = lowercaseStraight;
layers = (
{
anchors = (
{
name = bottom;
pos = (300,0);
},
{
name = top;
pos = (300,630);
}
);
layerId = m002;
shapes = (
{
attr = {
identifier = ID0x168d678c0;
lineCapEnd = "1";
lineCapStart = "1";
strokeHeight = 100;
strokeWidth = 100;
};
closed = 0;
nodes = (
(100,-220,l),
(100,850,l)
);
},
{
attr = {
identifier = ID0x168d678c0;
lineCapEnd = "1";
lineCapStart = "1";
strokeHeight = 100;
strokeWidth = 100;
};
closed = 0;
nodes = (
(100,380,l),
(100,490,o),
(190,580,o),
(300,580,c),
(410,580,o),
(500,490,o),
(500,380,c),
(500,250,l),
(500,140,o),
(410,50,o),
(300,50,c),
(190,50,o),
(100,140,o),
(100,250,c)
);
}
);
width = 600;
}
);
unicode = 254;
}
{
glyphname = eogonek;
kernLeft = lowercaseRound;
kernRight = lowercaseRound;
layers = (
{
anchors = (
{
name = top;
pos = (300,630);
}
);
layerId = m002;
shapes = (
{
ref = e;
},
{
pos = (82,4);
ref = ogonekcomb;
},
{
attr = {
lineCapEnd = 1;
lineCapStart = 1;
strokeHeight = 100;
strokeWidth = 100;
};
closed = 0;
nodes = (
(474,151,l),
(446,95,o),
(423,76,o),
(377,51,cs)
);
}
);
width = 560;
}
);
unicode = 281;
}
{
glyphname = hbar;
kernRight = lowercaseRounding;
layers = (
{
layerId = m002;
shapes = (
{
pos = (80,0);
ref = h;
},
{
attr = {
lineCapEnd = 1;
lineCapStart = 1;
strokeHeight = 100;
strokeWidth = 100;
};
closed = 0;
nodes = (
(100,750,l),
(311,750,l)
);
}
);
width = 680;
}
);
unicode = 295;
}
{
glyphname = idotless;
layers = (
{
anchors = (
{
name = bottom;
pos = (105,50);
},
{
name = ogonek;
pos = (156,0);
},
{
name = top;
pos = (105,630);
}
);
layerId = m002;
shapes = (
{
attr = {
lineCapEnd = 1;
lineCapStart = 1;
strokeHeight = 100;
strokeWidth = 100;
};
closed = 0;
nodes = (
(105,580,l),
(105,50,l)
);
}
);
width = 210;
}
);
unicode = 305;
}
{
glyphname = OE;
kernLeft = uppercaseRound;
layers = (
{
anchors = (
{
name = bottom;
pos = (565,0);
},
{
name = top;
pos = (565,900);
}
);
layerId = m002;
shapes = (
{
attr = {
strokeHeight = 100;
strokeWidth = 100;
};
closed = 1;
nodes = (
(630,169,o),
(512,50,o),
(365,50,c),
(219,50,o),
(100,169,o),
(100,315,c),
(100,585,l),
(100,731,o),
(219,850,o),
(365,850,c),
(512,850,o),
(630,731,o),
(630,585,c),
(630,315,l)
);
},
{
attr = {
lineCapEnd = 1;
lineCapStart = 1;
strokeHeight = 100;
strokeWidth = 100;
};
closed = 0;
nodes = (
(630,450,l),
(891,450,l)
);
},
{
attr = {
lineCapEnd = 1;
lineCapStart = 1;
strokeHeight = 100;
strokeWidth = 100;
};
closed = 0;
nodes = (
(630,850,l),
(1030,850,l)
);
},
{
attr = {
lineCapEnd = 1;
lineCapStart = 1;
strokeHeight = 100;
strokeWidth = 100;
};
closed = 0;
nodes = (
(1030,50,l),
(630,50,l)
);
},
{
attr = {
lineCapEnd = 1;
lineCapStart = 1;
strokeHeight = 100;
strokeWidth = 100;
};
closed = 0;
nodes = (
(630,50,l),
(630,850,l)
);
}
);
width = 1130;
}
);
unicode = 338;
}
{
glyphname = Uogonek;
layers = (
{
layerId = m002;
shapes = (
{
locked = 1;
ref = U;
},
{
pos = (247,73);
ref = ogonekcomb;
},
{
attr = {
lineCapEnd = 1;
lineCapStart = 1;
strokeHeight = 100;
strokeWidth = 100;
};
closed = 0;
nodes = (
(630,315,l)
);
}
);
width = 730;
}
);
unicode = 370;
}
{
glyphname = Ohorn;
kernLeft = uppercaseRound;
kernRight = uppercaseHorn;
layers = (
{
anchors = (
{
name = horn;
pos = (557,850);
}
);
layerId = m002;
shapes = (
{
ref = O;
},
{
attr = {
lineCapEnd = 1;
lineCapStart = 1;
strokeHeight = 100;
strokeWidth = 100;
};
closed = 0;
nodes = (
(365,850,l),
(567,850,l),
(641,850,o),
(698,869,o),
(688,964,cs)
);
}
);
width = 730;
}
);
unicode = 416;
}
{
glyphname = ohorn;
kernLeft = lowercaseRound;
layers = (
{
anchors = (
{
name = bottom;
pos = (300,50);
},
{
name = center;
pos = (300,340);
},
{
name = ogonek;
pos = (410,109);
},
{
name = top;
pos = (300,630);
},
{
name = topright;
pos = (580,630);
}
);
layerId = m002;
shapes = (
{
attr = {
identifier = ID0x101ae2a30;
strokeHeight = 100;
strokeWidth = 100;
};
closed = 1;
nodes = (
(410,50,o),
(500,140,o),
(500,250,c),
(500,380,l),
(500,490,o),
(410,580,o),
(300,580,c),
(190,580,o),
(100,490,o),
(100,380,c),
(100,250,l),
(100,140,o),
(190,50,o),
(300,50,c)
);
},
{
attr = {
lineCapEnd = 1;
strokeHeight = 100;
strokeWidth = 100;
};
closed = 0;
nodes = (
(300,580,l),
(448,580,l),
(522,580,o),
(579,599,o),
(569,694,cs)
);
}
);
width = 670;
}
);
unicode = 417;
}
{
export = 0;
glyphname = Gstroke;
layers = (
{
layerId = m002;
shapes = (
{
ref = G;
},
{
attr = {
identifier = ID0x1243ab640;
lineCapEnd = "1";
lineCapStart = "1";
strokeHeight = 100;
strokeWidth = 100;
};
closed = 0;
nodes = (
(429,188,l),
(725,188,l)
);
}
);
width = 730;
}
);
unicode = 484;
}
{
glyphname = gravecomb;
layers = (
{
anchors = (
{
name = _top;
pos = (280,630);
},
{
name = top;
pos = (280,845);
}
);
layerId = m002;
shapes = (
{
attr = {
lineCapEnd = 1;
lineCapStart = 1;
strokeHeight = 100;
strokeWidth = 100;
};
closed = 0;
nodes = (
(328,725,l),
(214,820,l)
);
}
);
width = 560;
}
);
unicode = 768;
}
{
glyphname = acutecomb;
layers = (
{
anchors = (
{
name = _top;
pos = (362,630);
},
{
name = top;
pos = (362,845);
}
);
layerId = m002;
shapes = (
{
attr = {
lineCapEnd = "1";
lineCapStart = "1";
strokeHeight = 100;
strokeWidth = 100;
};
closed = 0;
nodes = (
(318,725,l),
(432,820,l)
);
}
);
width = 732;
}
);
unicode = 769;
}
{
glyphname = tildecomb;
layers = (
{
anchors = (
{
name = _top;
pos = (276,630);
},
{
name = top;
pos = (276,900);
}
);
layerId = m002;
shapes = (
{
attr = {
lineCapEnd = "1";
lineCapStart = "1";
strokeHeight = 100;
strokeWidth = 100;
};
closed = 0;
nodes = (
(452,786,l),
(442,748,o),
(407,720,o),
(366,720,c),
(310,720,o),
(293,750,o),
(276,766,c),
(259,782,o),
(242,811,o),
(186,811,c),
(145,811,o),
(111,783,o),
(100,746,c)
);
}
);
width = 552;
}
);
unicode = 771;
}
{
glyphname = hookabovecomb;
layers = (
{
anchors = (
{
name = _top;
pos = (169,527);
},
{
name = top;
pos = (164,900);
}
);
layerId = m002;
shapes = (
{
attr = {
lineCapEnd = 1;
lineCapStart = 1;
strokeWidth = 100;
};
closed = 0;
nodes = (
(100,759,l),
(133,776,o),
(185,780,o),
(209,734,cs),
(235,685,o),
(194,642,o),
(169,630,cs)
);
}
);
width = 318;
}
);
unicode = 777;
}
{
glyphname = ringcomb;
layers = (
{
anchors = (
{
name = _top;
pos = (280,630);
},
{
name = top;
pos = (280,935);
}
);
layerId = m002;
shapes = (
{
attr = {
strokeHeight = 100;
strokeWidth = 100;
};
closed = 1;
nodes = (
(370,845,o),
(330,885,o),
(280,885,c),
(231,885,o),
(190,845,o),
(190,795,c),
(190,745,o),
(231,705,o),
(280,705,c),
(330,705,o),
(370,745,o),
(370,795,c)
);
}
);
width = 560;
}
);
unicode = 778;
}
{
glyphname = caroncomb;
layers = (
{
anchors = (
{
name = _top;
pos = (280,630);
},
{
name = top;
pos = (280,845);
}
);
layerId = m002;
shapes = (
{
attr = {
lineCapEnd = "1";
lineCapStart = "1";
strokeHeight = 100;
strokeWidth = 100;
};
closed = 0;
nodes = (
(280,745,l)
);
},
{
pos = (60,1552);
ref = circumflexcomb;
scale = (1,-1);
}
);
width = 561;
}
);
unicode = 780;
}
{
glyphname = horncomb;
layers = (
{
anchors = (
{
name = _top;
pos = (51,630);
}
);
layerId = m002;
shapes = (
{
attr = {
lineCapEnd = 1;
lineCapStart = 1;
strokeHeight = 100;
strokeWidth = 100;
};
closed = 0;
nodes = (
(100,580,l),
(174,580,o),
(231,599,o),
(221,694,cs)
);
}
);
width = 322;
}
);
metricLeft = "=50";
metricRight = "=50";
unicode = 795;
}
{
glyphname = commaaccentcomb;
layers = (
{
anchors = (
{
name = _bottom;
pos = (331,50);
},
{
name = bottom;
pos = (331,-254);
}
);
layerId = m002;
shapes = (
{
attr = {
lineCapEnd = "1";
lineCapStart = "1";
strokeHeight = 100;
strokeWidth = 100;
};
closed = 0;
nodes = (
(296,-204,l),
(366,-99,l)
);
}
);
width = 662;
}
);
unicode = 806;
}
{
glyphname = cedillacomb;
layers = (
{
anchors = (
{
name = _bottom;
pos = (229,50);
},
{
name = bottom;
pos = (207,-260);
}
);
layerId = m002;
shapes = (
{
attr = {
lineCapEnd = 1;
lineCapStart = 1;
strokeHeight = 100;
strokeWidth = 100;
};
closed = 0;
nodes = (
(179,-60,l),
(229,-60,l),
(270,-60,o),
(304,-94,o),
(304,-135,c),
(304,-177,o),
(270,-210,o),
(229,-210,c),
(110,-210,l)
);
},
{
attr = {
lineCapEnd = 1;
lineCapStart = 1;
strokeHeight = 100;
strokeWidth = 100;
};
closed = 0;
nodes = (
(229,50,l),
(179,-60,l)
);
}
);
width = 414;
}
);
unicode = 807;
}
{
glyphname = Pi;
kernLeft = uppercaseStraight;
kernRight = uppercaseStraight;
layers = (
{
layerId = m002;
shapes = (
{
attr = {
lineCapEnd = 1;
lineCapStart = 1;
strokeHeight = 100;
strokeWidth = 100;
};
closed = 0;
nodes = (
(610,850,l),
(610,50,l)
);
},
{
attr = {
lineCapEnd = 1;
lineCapStart = 1;
strokeHeight = 100;
strokeWidth = 100;
};
closed = 0;
nodes = (
(80,50,l),
(80,850,l)
);
},
{
attr = {
lineCapEnd = 1;
lineCapStart = 1;
strokeHeight = 100;
strokeWidth = 100;
};
closed = 0;
nodes = (
(80,850,l),
(610,850,l)
);
}
);
width = 690;
}
);
unicode = 928;
}
{
glyphname = Psi;
layers = (
{
layerId = m002;
shapes = (
{
attr = {
lineCapEnd = 1;
lineCapStart = 1;
strokeHeight = 100;
strokeWidth = 100;
};
closed = 0;
nodes = (
(500,350,l),
(380,350,l),
(226,350,o),
(100,475,o),
(100,630,c),
(100,850,l)
);
},
{
attr = {
lineCapEnd = 1;
lineCapStart = 1;
strokeHeight = 100;
strokeWidth = 100;
};
closed = 0;
nodes = (
(500,350,l),
(620,350,l),
(775,350,o),
(900,475,o),
(900,630,c),
(900,850,l)
);
},
{
attr = {
lineCapEnd = 1;
lineCapStart = 1;
strokeHeight = 100;
strokeWidth = 100;
};
closed = 0;
nodes = (
(500,850,l),
(500,50,l)
);
}
);
width = 1000;
}
);
unicode = 936;
}
{
glyphname = beta;
layers = (
{
layerId = m002;
shapes = (
{
attr = {
lineCapEnd = 1;
lineCapStart = 1;
strokeHeight = 100;
strokeWidth = 100;
};
closed = 0;
nodes = (
(80,117,l),
(119,65,o),
(197,50,o),
(280,50,c),
(390,50,o),
(480,140,o),
(480,250,c),
(480,250,l),
(480,360,o),
(390,450,o),
(280,450,c)
);
},
{
attr = {
lineCapEnd = 1;
lineCapStart = 1;
strokeHeight = 100;
strokeWidth = 100;
};
closed = 0;
nodes = (
(80,-220,l),
(80,650,l),
(80,760,o),
(169,850,o),
(280,850,c),
(280,850,l),
(390,850,o),
(480,760,o),
(480,650,c),
(480,650,l),
(480,539,o),
(390,450,o),
(280,450,c)
);
}
);
width = 560;
}
);
unicode = 946;
}
{
glyphname = epsilon;
layers = (
{
anchors = (
{
name = top;
pos = (275,630);
}
);
layerId = m002;
shapes = (
{
attr = {
lineCapEnd = 1;
lineCapStart = 1;
strokeHeight = 100;
strokeWidth = 100;
};
closed = 0;
nodes = (
(449,95,l),
(413,64,o),
(373,50,o),
(285,50,c),
(232,50,l),
(159,50,o),
(100,109,o),
(100,182,cs),
(100,256,o),
(159,315,o),
(232,315,c)
);
},
{
attr = {
lineCapEnd = 1;
lineCapStart = 1;
strokeHeight = 100;
strokeWidth = 100;
};
closed = 0;
nodes = (
(450,536,l),
(413,566,o),
(373,580,o),
(285,580,c),
(232,580,l),
(159,580,o),
(100,521,o),
(100,447,cs),
(100,374,o),
(159,315,o),
(232,315,c)
);
},
{
attr = {
lineCapEnd = 1;
lineCapStart = 1;
strokeHeight = 100;
strokeWidth = 100;
};
closed = 0;
nodes = (
(366,315,l),
(232,315,l)
);
},
{
attr = {
lineCapEnd = 1;
lineCapStart = 1;
strokeHeight = 100;
strokeWidth = 100;
};
closed = 1;
nodes = (
(100,447,l)
);
},
{
attr = {
lineCapEnd = 1;
lineCapStart = 1;
strokeHeight = 100;
strokeWidth = 100;
};
closed = 1;
nodes = (
(100,182,l)
);
}
);
width = 550;
}
);
unicode = 949;
}
{
glyphname = zeta;
layers = (
{
layerId = m002;
shapes = (
{
attr = {
lineCapEnd = 1;
lineCapStart = 1;
strokeHeight = 100;
strokeWidth = 100;
};
closed = 0;
nodes = (
(450,-183,l),
(475,-166,o),
(493,-139,o),
(499,-108,cs),
(510,-44,o),
(467,17,o),
(402,28,c),
(402,28,o),
(291,48,o),
(253,55,c),
(164,70,o),
(100,155,o),
(100,249,cs),
(100,667,o),
(500,850,o),
(500,850,c)
);
},
{
attr = {
lineCapEnd = 1;
lineCapStart = 1;
strokeHeight = 100;
strokeWidth = 100;
};
closed = 0;
nodes = (
(500,850,l),
(100,850,l)
);
},
{
attr = {
lineCapEnd = 1;
lineCapStart = 1;
strokeHeight = 100;
strokeWidth = 100;
};
closed = 1;
nodes = (
(100,249,l)
);
},
{
attr = {
lineCapEnd = 1;
lineCapStart = 1;
strokeHeight = 100;
strokeWidth = 100;
};
closed = 1;
nodes = (
(499,-108,l)
);
}
);
width = 601;
}
);
unicode = 950;
}
{
glyphname = mu;
kernLeft = lowercaseStraight;
kernRight = lowercaseStraight;
layers = (
{
layerId = m002;
shapes = (
{
attr = {
lineCapEnd = 1;
lineCapStart = 1;
strokeHeight = 100;
strokeWidth = 100;
};
closed = 0;
nodes = (
(100,580,l),
(100,250,l),
(100,140,o),
(189,50,o),
(300,50,cs),
(410,50,o),
(500,140,o),
(500,250,c),
(500,580,l)
);
},
{
attr = {
lineCapEnd = 1;
lineCapStart = 1;
strokeHeight = 100;
strokeWidth = 100;
};
closed = 0;
nodes = (
(500,250,l),
(500,50,l)
);
},
{
attr = {
lineCapEnd = 1;
lineCapStart = 1;
strokeHeight = 100;
strokeWidth = 100;
};
closed = 0;
nodes = (
(100,250,l),
(100,-220,l)
);
},
{
attr = {
lineCapEnd = 1;
lineCapStart = 1;
strokeHeight = 100;
strokeWidth = 100;
};
closed = 1;
nodes = (
(300,50,l)
);
}
);
width = 600;
}
);
unicode = 956;
}
{
glyphname = xi;
layers = (
{
layerId = m002;
shapes = (
{
attr = {
lineCapEnd = 1;
lineCapStart = 1;
strokeHeight = 100;
strokeWidth = 100;
};
closed = 0;
nodes = (
(400,450,l),
(300,450,l)
);
},
{
attr = {
lineCapEnd = 1;
lineCapStart = 1;
strokeHeight = 100;
strokeWidth = 100;
};
closed = 0;
nodes = (
(500,783,l),
(451,836,o),
(404,850,o),
(300,850,c),
(190,850,o),
(100,760,o),
(100,650,cs),
(100,539,o),
(190,450,o),
(300,450,c)
);
},
{
attr = {
lineCapEnd = 1;
lineCapStart = 1;
strokeHeight = 100;
strokeWidth = 100;
};
closed = 0;
nodes = (
(450,-182,l),
(475,-165,o),
(493,-139,o),
(498,-107,cs),
(510,-43,o),
(467,18,o),
(402,29,c),
(402,29,o),
(290,49,o),
(253,56,c),
(164,71,o),
(100,156,o),
(100,250,cs),
(100,360,o),
(190,450,o),
(300,450,c)
);
},
{
attr = {
lineCapEnd = 1;
lineCapStart = 1;
strokeHeight = 100;
strokeWidth = 100;
};
closed = 1;
nodes = (
(100,650,l)
);
},
{
attr = {
lineCapEnd = 1;
lineCapStart = 1;
strokeHeight = 100;
strokeWidth = 100;
};
closed = 1;
nodes = (
(100,250,l)
);
},
{
attr = {
lineCapEnd = 1;
lineCapStart = 1;
strokeHeight = 100;
strokeWidth = 100;
};
closed = 1;
nodes = (
(498,-107,l)
);
}
);
width = 600;
}
);
unicode = 958;
}
{
glyphname = sigmafinal;
layers = (
{
layerId = m002;
shapes = (
{
attr = {
lineCapEnd = 1;
lineCapStart = 1;
strokeHeight = 100;
strokeWidth = 100;
};
closed = 0;
nodes = (
(450,-184,l),
(474,-166,o),
(493,-140,o),
(498,-108,cs),
(509,-44,o),
(466,17,o),
(402,28,c),
(402,28,o),
(290,48,o),
(252,55,c),
(164,70,o),
(100,155,o),
(100,249,c),
(100,380,l),
(100,490,o),
(189,580,o),
(300,580,c),
(374,580,o),
(407,571,o),
(464,513,c)
);
},
{
attr = {
lineCapEnd = 1;
lineCapStart = 1;
strokeHeight = 100;
strokeWidth = 100;
};
closed = 1;
nodes = (
(498,-108,l)
);
}
);
width = 600;
}
);
unicode = 962;
}
{
glyphname = sigma;
kernLeft = lowercaseRound;
layers = (
{
layerId = m002;
shapes = (
{
attr = {
strokeHeight = 100;
strokeWidth = 100;
};
closed = 1;
nodes = (
(411,580,o),
(500,490,o),
(500,380,c),
(500,250,l),
(500,140,o),
(411,50,o),
(300,50,c),
(300,50,l),
(190,50,o),
(100,140,o),
(100,250,c),
(100,380,l),
(100,490,o),
(190,580,o),
(300,580,c)
);
},
{
attr = {
lineCapEnd = 1;
lineCapStart = 1;
strokeHeight = 100;
strokeWidth = 100;
};
closed = 0;
nodes = (
(600,580,l),
(300,580,l)
);
}
);
width = 700;
}
);
unicode = 963;
}
{
glyphname = psi;
layers = (
{
layerId = m002;
shapes = (
{
attr = {
lineCapEnd = 1;
lineCapStart = 1;
strokeHeight = 100;
strokeWidth = 100;
};
closed = 0;
nodes = (
(500,50,l),
(380,50,l),
(226,50,o),
(100,175,o),
(100,330,c),
(100,550,l)
);
},
{
attr = {
lineCapEnd = 1;
lineCapStart = 1;
strokeHeight = 100;
strokeWidth = 100;
};
closed = 0;
nodes = (
(500,50,l),
(620,50,l),
(775,50,o),
(900,175,o),
(900,330,c),
(900,550,l)
);
},
{
attr = {
lineCapEnd = 1;
lineCapStart = 1;
strokeHeight = 100;
strokeWidth = 100;
};
closed = 0;
nodes = (
(500,650,l),
(500,-250,l)
);
}
);
width = 1000;
}
);
unicode = 968;
}
{
glyphname = "E-cy";
layers = (
{
layerId = m002;
shapes = (
{
attr = {
lineCapEnd = "1";
lineCapStart = "1";
strokeHeight = 100;
strokeWidth = 100;
};
closed = 0;
nodes = (
(100,450,l),
(477,450,l)
);
},
{
attr = {
lineCapEnd = "1";
lineCapStart = "1";
strokeHeight = 100;
strokeWidth = 100;
};
closed = 0;
nodes = (
(663,202,l),
(611,111,o),
(514,50,o),
(402,50,c),
(235,50,o),
(100,185,o),
(100,352,c),
(100,548,l),
(100,715,o),
(235,850,o),
(402,850,c),
(402,850,l),
(514,850,o),
(612,789,o),
(664,698,c)
);
}
);
width = 764;
}
);
unicode = 1028;
}
{
glyphname = "Iishort-cy";
layers = (
{
layerId = m002;
shapes = (
{
attr = {
lineCapEnd = "1";
lineCapStart = "1";
strokeHeight = 100;
strokeWidth = 100;
};
closed = 0;
nodes = (
(225,1155,l),
(225,1077,o),
(288,1015,o),
(365,1015,c),
(443,1015,o),
(505,1077,o),
(505,1155,c)
);
},
{
attr = {
lineCapEnd = "1";
lineCapStart = "1";
strokeHeight = 100;
strokeWidth = 100;
};
closed = 0;
nodes = (
(630,850,l),
(100,50,l)
);
},
{
attr = {
lineCapEnd = "1";
lineCapStart = "1";
strokeHeight = 100;
strokeWidth = 100;
};
closed = 0;
nodes = (
(100,50,l),
(100,850,l)
);
},
{
attr = {
lineCapEnd = "1";
lineCapStart = "1";
strokeHeight = 100;
strokeWidth = 100;
};
closed = 0;
nodes = (
(630,50,l),
(630,850,l)
);
}
);
width = 730;
}
);
unicode = 1049;
}
{
glyphname = "Ka-cy";
layers = (
{
anchors = (
{
name = bottomright;
pos = (710,0);
},
{
name = top;
pos = (365,900);
}
);
layerId = m002;
shapes = (
{
attr = {
lineCapEnd = 1;
lineCapStart = 1;
strokeHeight = 100;
strokeWidth = 100;
};
closed = 0;
nodes = (
(100,850,l),
(100,50,l)
);
},
{
attr = {
lineCapEnd = 1;
lineCapStart = 1;
strokeHeight = 100;
strokeWidth = 100;
};
closed = 0;
nodes = (
(100,450,l),
(204,450,l),
(305,450,o),
(399,500,o),
(454,584,c),
(630,850,l)
);
},
{
attr = {
lineCapEnd = 1;
lineCapStart = 1;
strokeHeight = 100;
strokeWidth = 100;
};
closed = 0;
nodes = (
(100,450,l),
(204,450,l),
(305,450,o),
(399,400,o),
(454,316,c),
(630,50,l)
);
}
);
width = 730;
}
);
unicode = 1050;
}
{
glyphname = "U-cy";
layers = (
{
anchors = (
{
name = top;
pos = (365,900);
}
);
layerId = m002;
shapes = (
{
attr = {
lineCapEnd = 1;
lineCapStart = 1;
strokeHeight = 100;
strokeWidth = 100;
};
closed = 0;
nodes = (
(382,320,l),
(100,850,l)
);
},
{
attr = {
lineCapEnd = 1;
lineCapStart = 1;
strokeHeight = 100;
strokeWidth = 100;
};
closed = 0;
nodes = (
(630,850,l),
(296,136,l),
(272,84,o),
(219,50,o),
(160,50,c),
(100,50,l)
);
}
);
width = 730;
}
);
unicode = 1059;
}
{
glyphname = "Ereversed-cy";
layers = (
{
anchors = (
{
name = top;
pos = (382,900);
}
);
layerId = m002;
shapes = (
{
attr = {
lineCapEnd = 1;
lineCapStart = 1;
strokeHeight = 100;
strokeWidth = 100;
};
closed = 0;
nodes = (
(664,450,l),
(287,450,l)
);
},
{
attr = {
lineCapEnd = 1;
lineCapStart = 1;
strokeHeight = 100;
strokeWidth = 100;
};
closed = 0;
nodes = (
(100,698,l),
(152,789,o),
(250,850,o),
(362,850,c),
(362,850,l),
(529,850,o),
(664,715,o),
(664,548,c),
(664,352,l),
(664,185,o),
(529,50,o),
(362,50,c),
(250,50,o),
(153,111,o),
(101,202,c)
);
}
);
width = 764;
}
);
unicode = 1069;
}
{
glyphname = "Ya-cy";
kernRight = uppercaseStraight;
layers = (
{
anchors = (
{
name = top;
pos = (365,900);
}
);
layerId = m002;
shapes = (
{
attr = {
lineCapEnd = "1";
lineCapStart = "1";
strokeHeight = 100;
strokeWidth = 100;
};
closed = 0;
nodes = (
(375,320,l),
(106,50,l)
);
},
{
attr = {
lineCapEnd = "1";
lineCapStart = "1";
strokeHeight = 100;
strokeWidth = 100;
};
closed = 0;
nodes = (
(630,50,l),
(630,850,l)
);
},
{
attr = {
lineCapEnd = "1";
lineCapStart = "1";
strokeHeight = 100;
strokeWidth = 100;
};
closed = 0;
nodes = (
(630,320,l),
(365,320,l),
(219,320,o),
(100,439,o),
(100,585,c),
(100,731,o),
(219,850,o),
(365,850,c),
(630,850,l)
);
}
);
width = 730;
}
);
unicode = 1071;
}
{
glyphname = "be-cy";
layers = (
{
layerId = m002;
shapes = (
{
attr = {
strokeHeight = 100;
strokeWidth = 100;
};
closed = 1;
nodes = (
(630,169,o),
(512,50,o),
(365,50,c),
(219,50,o),
(100,169,o),
(100,315,c),
(100,461,o),
(219,580,o),
(365,580,c),
(512,580,o),
(630,461,o),
(630,315,c)
);
},
{
attr = {
lineCapEnd = 1;
lineCapStart = 1;
strokeHeight = 100;
strokeWidth = 100;
};
closed = 0;
nodes = (
(530,850,l),
(365,850,l),
(219,850,o),
(100,731,o),
(100,585,c),
(100,315,l)
);
}
);
width = 730;
}
);
unicode = 1073;
}
{
glyphname = "ge-cy";
kernLeft = lowercaseStraight;
layers = (
{
anchors = (
{
name = bottomright;
pos = (530,0);
},
{
name = top;
pos = (275,630);
}
);
layerId = m002;
shapes = (
{
attr = {
lineCapEnd = 1;
lineCapStart = 1;
strokeHeight = 100;
strokeWidth = 100;
};
closed = 0;
nodes = (
(100,50,l),
(100,580,l)
);
},
{
attr = {
lineCapEnd = 1;
lineCapStart = 1;
strokeHeight = 100;
strokeWidth = 100;
};
closed = 0;
nodes = (
(100,580,l),
(450,580,l)
);
}
);
width = 550;
}
);
unicode = 1075;
}
{
glyphname = "de-cy";
layers = (
{
layerId = m002;
shapes = (
{
attr = {
lineCapEnd = 1;
lineCapStart = 1;
strokeHeight = 100;
strokeWidth = 100;
};
closed = 0;
nodes = (
(620,49,l),
(100,49,l)
);
},
{
attr = {
lineCapEnd = 1;
lineCapStart = 1;
strokeHeight = 100;
strokeWidth = 100;
};
closed = 0;
nodes = (
(245,579,l),
(245,363,o),
(226,221,o),
(155,49,c)
);
},
{
attr = {
lineCapEnd = 1;
lineCapStart = 1;
strokeHeight = 100;
strokeWidth = 100;
};
closed = 0;
nodes = (
(555,49,l),
(555,579,l)
);
},
{
attr = {
lineCapEnd = 1;
lineCapStart = 1;
strokeHeight = 100;
strokeWidth = 100;
};
closed = 0;
nodes = (
(555,579,l),
(245,579,l)
);
},
{
attr = {
lineCapEnd = 1;
lineCapStart = 1;
strokeHeight = 100;
strokeWidth = 100;
};
closed = 0;
nodes = (
(100,49,l),
(100,-51,l)
);
},
{
attr = {
lineCapEnd = 1;
lineCapStart = 1;
strokeHeight = 100;
strokeWidth = 100;
};
closed = 0;
nodes = (
(620,-51,l),
(620,49,l)
);
}
);
width = 720;
}
);
unicode = 1076;
}
{
glyphname = "ze-cy";
layers = (
{
anchors = (
{
name = bottom;
pos = (276,0);
},
{
name = top;
pos = (276,630);
}
);
layerId = m002;
shapes = (
{
attr = {
lineCapEnd = 1;
lineCapStart = 1;
strokeHeight = 100;
strokeWidth = 100;
};
closed = 0;
nodes = (
(184,315,l),
(318,315,l)
);
},
{
attr = {
lineCapEnd = 1;
lineCapStart = 1;
strokeHeight = 100;
strokeWidth = 100;
};
closed = 0;
nodes = (
(100,536,l),
(136,566,o),
(176,580,o),
(265,580,c),
(318,580,l),
(392,580,o),
(451,521,o),
(451,447,c),
(451,447,l),
(451,374,o),
(392,315,o),
(318,315,c)
);
},
{
attr = {
lineCapEnd = 1;
lineCapStart = 1;
strokeHeight = 100;
strokeWidth = 100;
};
closed = 0;
nodes = (
(100,95,l),
(136,64,o),
(176,50,o),
(265,50,c),
(318,50,l),
(392,50,o),
(451,109,o),
(451,182,c),
(451,182,l),
(451,256,o),
(392,315,o),
(318,315,c)
);
}
);
width = 551;
}
);
unicode = 1079;
}
{
glyphname = "ef-cy";
kernLeft = lowercaseRound;
kernRight = lowercaseRound;
layers = (
{
layerId = m002;
shapes = (
{
attr = {
lineCapEnd = 1;
lineCapStart = 1;
strokeHeight = 100;
strokeWidth = 100;
};
closed = 0;
nodes = (
(465,794,l),
(465,-166,l)
);
},
{
attr = {
strokeHeight = 100;
strokeWidth = 100;
};
closed = 1;
nodes = (
(218,49,o),
(100,168,o),
(100,314,c),
(100,460,o),
(218,579,o),
(365,579,c),
(565,579,l),
(711,579,o),
(830,460,o),
(830,314,c),
(830,168,o),
(711,49,o),
(565,49,c),
(365,49,l)
);
}
);
width = 930;
}
);
unicode = 1092;
}
{
glyphname = "shcha-cy";
kernLeft = lowercaseStraight;
layers = (
{
layerId = m002;
shapes = (
{
ref = "sha-cy";
},
{
attr = {
lineCapEnd = 1;
lineCapStart = 1;
strokeHeight = 100;
strokeWidth = 100;
};
closed = 0;
nodes = (
(837,50,l),
(837,-67,l)
);
},
{
attr = {
lineCapEnd = 1;
lineCapStart = 1;
strokeHeight = 100;
strokeWidth = 100;
};
closed = 0;
nodes = (
(737,50,l),
(837,50,l)
);
}
);
width = 937;
}
);
unicode = 1097;
}
{
glyphname = "softsign-cy";
kernLeft = lowercaseStraight;
layers = (
{
layerId = m002;
shapes = (
{
attr = {
lineCapEnd = 1;
lineCapStart = 1;
strokeHeight = 100;
strokeWidth = 100;
};
closed = 0;
nodes = (
(100,50,l),
(369,50,l),
(441,50,o),
(500,109,o),
(500,183,c),
(500,256,o),
(441,315,o),
(369,315,c),
(100,315,l)
);
},
{
attr = {
lineCapEnd = 1;
lineCapStart = 1;
strokeHeight = 100;
strokeWidth = 100;
};
closed = 0;
nodes = (
(100,580,l),
(100,50,l)
);
}
);
width = 600;
}
);
unicode = 1100;
}
{
glyphname = "ereversed-cy";
kernLeft = lowercaseRound;
kernRight = lowercaseRound;
layers = (
{
anchors = (
{
name = top;
pos = (287,630);
}
);
layerId = m002;
shapes = (
{
attr = {
lineCapEnd = 1;
lineCapStart = 1;
strokeHeight = 100;
strokeWidth = 100;
};
closed = 0;
nodes = (
(474,315,l),
(224,315,l)
);
},
{
attr = {
lineCapEnd = 1;
lineCapStart = 1;
strokeHeight = 100;
strokeWidth = 100;
};
closed = 0;
nodes = (
(100,479,l),
(135,539,o),
(200,580,o),
(274,580,c),
(385,580,o),
(474,490,o),
(474,380,c),
(474,250,l),
(474,140,o),
(385,50,o),
(274,50,c),
(200,50,o),
(135,90,o),
(101,150,c)
);
}
);
width = 574;
}
);
unicode = 1101;
}
{
color = 1;
glyphname = "yu-cy";
kernLeft = lowercaseStraight;
kernRight = lowercaseRound;
layers = (
{
anchors = (
{
name = top;
pos = (430,630);
}
);
layerId = m002;
shapes = (
{
attr = {
lineCapEnd = 1;
lineCapStart = 1;
strokeHeight = 100;
strokeWidth = 100;
};
closed = 0;
nodes = (
(100,50,l),
(100,580,l)
);
},
{
attr = {
lineCapEnd = 1;
lineCapStart = 1;
strokeHeight = 100;
strokeWidth = 100;
};
closed = 0;
nodes = (
(100,315,l),
(360,315,l)
);
},
{
attr = {
lineCapEnd = 1;
lineCapStart = 1;
strokeHeight = 100;
strokeWidth = 100;
};
closed = 0;
nodes = (
(560,50,l),
(450,50,o),
(360,140,o),
(360,250,c),
(360,380,l),
(360,490,o),
(450,580,o),
(560,580,cs),
(670,580,o),
(760,490,o),
(760,380,c),
(760,250,l),
(760,140,o),
(670,50,o),
(560,50,c)
);
},
{
attr = {
lineCapEnd = 1;
lineCapStart = 1;
strokeHeight = 100;
strokeWidth = 100;
};
closed = 1;
nodes = (
(560,580,l)
);
}
);
width = 860;
}
);
unicode = 1102;
}
{
glyphname = "Yat-cy";
layers = (
{
layerId = m002;
shapes = (
{
attr = {
identifier = ID0x2b78e86c0;
lineCapEnd = "1";
lineCapStart = "1";
strokeHeight = 100;
strokeWidth = 100;
};
closed = 0;
nodes = (
(301,50,l)
);
},
{
attr = {
identifier = ID0x2b78e86c0;
lineCapEnd = "1";
lineCapStart = "1";
strokeHeight = 100;
strokeWidth = 100;
};
closed = 0;
nodes = (
(301,750,l),
(301,580,l)
);
},
{
attr = {
lineCapEnd = "1";
lineCapStart = "1";
strokeHeight = 100;
strokeWidth = 100;
};
closed = 0;
nodes = (
(101,580,l),
(501,580,l)
);
},
{
pos = (201,0);
ref = "softsign-cy";
}
);
width = 830;
}
);
unicode = 1122;
}
{
glyphname = "izhitsa-cy";
layers = (
{
anchors = (
{
name = top;
pos = (350,630);
}
);
background = {
shapes = (
{
closed = 0;
nodes = (
(500,580,l)
);
},
{
closed = 0;
nodes = (
(500,580,l)
);
}
);
};
layerId = m002;
shapes = (
{
attr = {
identifier = ID0x1041351b0;
lineCapEnd = 1;
lineCapStart = 1;
strokeHeight = 100;
strokeWidth = 100;
};
closed = 0;
nodes = (
(300,50,l),
(473,509,ls),
(490,554,o),
(529,580,o),
(576,580,cs),
(600,580,l)
);
},
{
attr = {
identifier = ID0x1041351b0;
lineCapEnd = 1;
lineCapStart = 1;
strokeHeight = 100;
strokeWidth = 100;
};
closed = 0;
nodes = (
(300,50,l),
(100,580,l)
);
}
);
width = 700;
}
);
unicode = 1141;
}
{
glyphname = "Zhedescender-cy";
layers = (
{
layerId = m002;
shapes = (
{
ref = "Zhe-cy";
},
{
attr = {
lineCapEnd = "1";
lineCapStart = "1";
strokeHeight = 100;
strokeWidth = 100;
};
closed = 0;
nodes = (
(900,50,l),
(1000,50,l)
);
},
{
attr = {
lineCapEnd = "1";
lineCapStart = "1";
strokeHeight = 100;
strokeWidth = 100;
};
closed = 0;
nodes = (
(1000,50,l),
(1000,-50,l)
);
}
);
width = 1100;
}
);
unicode = 1174;
}
{
glyphname = "palochka-cy";
layers = (
{
layerId = m002;
shapes = (
{
attr = {
identifier = ID0x2989961d0;
lineCapEnd = 1;
lineCapStart = 1;
strokeHeight = 100;
strokeWidth = 100;
};
closed = 0;
nodes = (
(105,730,l),
(105,50,l)
);
}
);
width = 210;
}
);
unicode = 1231;
}
{
glyphname = "zayin-hb";
layers = (
{
anchors = (
{
name = bottom;
pos = (400,0);
},
{
name = bottomleft;
pos = (120,0);
},
{
name = center;
pos = (400,508);
},
{
name = top;
pos = (400,1015);
},
{
name = topleft;
pos = (120,1015);
}
);
layerId = m002;
shapes = (
{
attr = {
lineCapEnd = 1;
lineCapStart = 1;
strokeHeight = 100;
strokeWidth = 100;
};
closed = 0;
nodes = (
(100,795,l),
(360,795,l)
);
},
{
attr = {
lineCapEnd = 1;
lineCapStart = 1;
strokeHeight = 100;
strokeWidth = 100;
};
closed = 0;
nodes = (
(230,50,l),
(230,565,l),
(230,674,o),
(270,750,o),
(360,795,c)
);
}
);
width = 460;
}
);
unicode = 1494;
}
{
glyphname = "kafFinal-hb";
layers = (
{
anchors = (
{
name = bottom;
pos = (315,0);
},
{
name = bottomleft;
pos = (20,0);
},
{
name = center;
pos = (315,508);
},
{
name = top;
pos = (315,1015);
},
{
name = topleft;
pos = (20,1015);
}
);
layerId = m002;
shapes = (
{
attr = {
lineCapEnd = 1;
lineCapStart = 1;
strokeHeight = 100;
strokeWidth = 100;
};
closed = 0;
nodes = (
(530,-165,l),
(530,595,l),
(530,705,o),
(440,795,o),
(330,795,c),
(209,795,l),
(170,795,o),
(133,786,o),
(100,769,c)
);
}
);
width = 630;
}
);
unicode = 1498;
}
{
glyphname = "kaf-hb";
kernRight = hebrewRound;
layers = (
{
anchors = (
{
name = bottom;
pos = (300,0);
},
{
name = bottomleft;
pos = (20,0);
},
{
name = center;
pos = (300,508);
},
{
name = top;
pos = (300,1015);
},
{
name = topleft;
pos = (20,1015);
}
);
layerId = m002;
shapes = (
{
attr = {
lineCapEnd = 1;
lineCapStart = 1;
strokeHeight = 100;
strokeWidth = 100;
};
closed = 0;
nodes = (
(100,778,l),
(131,789,o),
(165,795,o),
(200,795,c),
(200,795,l),
(366,795,o),
(500,661,o),
(500,495,c),
(500,350,l),
(500,184,o),
(366,50,o),
(200,50,c),
(200,50,l),
(165,50,o),
(131,56,o),
(100,67,c)
);
}
);
width = 600;
}
);
unicode = 1499;
}
{
glyphname = "samekh-hb";
kernRight = hebrewRound;
layers = (
{
anchors = (
{
name = bottom;
pos = (381,0);
},
{
name = bottomleft;
pos = (20,0);
},
{
name = center;
pos = (381,508);
},
{
name = top;
pos = (381,1015);
},
{
name = topleft;
pos = (20,1015);
}
);
layerId = m002;
shapes = (
{
attr = {
strokeHeight = 100;
strokeWidth = 100;
};
closed = 1;
nodes = (
(536,795,o),
(662,669,o),
(662,514,c),
(662,331,l),
(662,176,o),
(536,50,o),
(381,50,c),
(381,50,l),
(226,50,o),
(100,176,o),
(100,331,c),
(100,514,l),
(100,669,o),
(226,795,o),
(381,795,c)
);
},
{
attr = {
lineCapEnd = 1;
lineCapStart = 1;
strokeHeight = 100;
strokeWidth = 100;
};
closed = 0;
nodes = (
(100,795,l),
(381,795,l)
);
}
);
width = 762;
}
);
unicode = 1505;
}
{
glyphname = "peFinal-hb";
layers = (
{
anchors = (
{
name = bottom;
pos = (350,0);
},
{
name = bottomleft;
pos = (20,0);
},
{
name = center;
pos = (350,508);
},
{
name = top;
pos = (350,1015);
},
{
name = topleft;
pos = (20,1015);
}
);
layerId = m002;
shapes = (
{
attr = {
lineCapEnd = "1";
lineCapStart = "1";
strokeHeight = 100;
strokeWidth = 100;
};
closed = 0;
nodes = (
(600,-165,l),
(600,435,l),
(600,674,o),
(484,795,o),
(340,795,c),
(340,795,l),
(207,795,o),
(100,688,o),
(100,555,c),
(100,555,l),
(100,435,o),
(188,336,o),
(303,318,c)
);
}
);
width = 700;
}
);
unicode = 1507;
}
{
glyphname = "tav-hb";
layers = (
{
anchors = (
{
name = bottom;
pos = (399,0);
},
{
name = bottomleft;
pos = (119,0);
},
{
name = center;
pos = (399,508);
},
{
name = top;
pos = (399,1015);
},
{
name = topleft;
pos = (119,1015);
}
);
layerId = m002;
shapes = (
{
attr = {
lineCapEnd = 1;
lineCapStart = 1;
strokeHeight = 100;
strokeWidth = 100;
};
closed = 0;
nodes = (
(670,50,l),
(670,595,l),
(670,705,o),
(580,795,o),
(470,795,c),
(279,795,l),
(240,795,o),
(168,792,o),
(120,769,c)
);
},
{
attr = {
lineCapEnd = 1;
lineCapStart = 1;
strokeHeight = 100;
strokeWidth = 100;
};
closed = 0;
nodes = (
(230,793,l),
(230,180,l),
(230,108,o),
(172,50,o),
(100,50,c)
);
}
);
width = 770;
}
);
metricRight = "מ";
unicode = 1514;
}
{
export = 0;
glyphname = "koKai-thai";
kernLeft = lowercaseRound;
kernRight = lowercaseRound;
layers = (
{
layerId = m002;
shapes = (
{
attr = {
lineCapEnd = 1;
lineCapStart = 1;
strokeHeight = 100;
strokeWidth = 100;
};
closed = 0;
nodes = (
(576,0,l),
(576,393,l),
(576,524,o),
(469,630,o),
(338,630,c),
(207,630,o),
(100,524,o),
(100,393,c)
);
},
{
attr = {
lineCapEnd = 1;
lineCapStart = 1;
strokeHeight = 100;
strokeWidth = 100;
};
closed = 0;
nodes = (
(195,333,l),
(195,0,l)
);
},
{
attr = {
lineCapEnd = 1;
lineCapStart = 1;
strokeHeight = 100;
strokeWidth = 100;
};
closed = 0;
nodes = (
(100,393,l),
(195,333,l)
);
}
);
width = 676;
}
);
unicode = 3585;
}
{
export = 0;
glyphname = "khoKhai-thai";
kernLeft = lowercaseRound;
kernRight = lowercaseRound;
layers = (
{
layerId = m002;
shapes = (
{
attr = {
lineCapEnd = 1;
lineCapStart = 1;
strokeHeight = 100;
strokeWidth = 100;
};
closed = 0;
nodes = (
(533,580,l),
(533,250,l),
(533,140,o),
(444,50,o),
(333,50,c),
(223,50,o),
(133,140,o),
(133,250,c),
(133,316,o),
(174,373,o),
(208,410,c),
(236,440,o),
(253,479,o),
(253,520,c),
(253,557,o),
(224,590,o),
(183,590,c),
(145,590,o),
(126,590,o),
(100,573,c)
);
}
);
width = 633;
}
);
metricLeft = "=50";
metricRight = "=50";
unicode = 3586;
}
{
export = 0;
glyphname = "khoKhwai-thai";
kernLeft = lowercaseRound;
kernRight = lowercaseRound;
layers = (
{
layerId = m002;
shapes = (
{
attr = {
lineCapEnd = 1;
lineCapStart = 1;
strokeHeight = 100;
strokeWidth = 100;
};
closed = 0;
nodes = (
(576,0,l),
(576,405,l),
(576,536,o),
(469,642,o),
(338,642,c),
(207,642,o),
(100,536,o),
(100,405,c),
(100,0,l)
);
},
{
attr = {
lineCapEnd = 1;
lineCapStart = 1;
strokeHeight = 100;
strokeWidth = 100;
};
closed = 0;
nodes = (
(338,309,l),
(207,309,o),
(100,203,o),
(100,72,c)
);
}
);
width = 676;
}
);
unicode = 3588;
}
{
export = 0;
glyphname = "khoKhon-thai";
kernLeft = lowercaseRound;
kernRight = lowercaseRound;
layers = (
{
layerId = m002;
shapes = (
{
attr = {
lineCapEnd = 1;
lineCapStart = 1;
strokeHeight = 100;
strokeWidth = 100;
};
closed = 0;
nodes = (
(300,490,l),
(300,546,o),
(255,590,o),
(200,590,c),
(145,590,o),
(100,546,o),
(100,490,c),
(100,380,l),
(100,50,l)
);
},
{
attr = {
lineCapEnd = 1;
lineCapStart = 1;
strokeHeight = 100;
strokeWidth = 100;
};
closed = 0;
nodes = (
(300,310,l),
(189,310,o),
(100,221,o),
(100,110,c)
);
},
{
attr = {
lineCapEnd = 1;
lineCapStart = 1;
strokeHeight = 100;
strokeWidth = 100;
};
closed = 0;
nodes = (
(500,50,l),
(500,380,l),
(500,490,l),
(500,546,o),
(455,590,o),
(400,590,c),
(345,590,o),
(300,546,o),
(300,490,c)
);
}
);
width = 600;
}
);
metricLeft = "=50";
metricRight = "=50";
unicode = 3589;
}
{
export = 0;
glyphname = "ngoNgu-thai";
layers = (
{
layerId = m002;
shapes = (
{
attr = {
lineCapEnd = 1;
lineCapStart = 1;
strokeHeight = 100;
strokeWidth = 100;
};
closed = 0;
nodes = (
(296,630,l),
(448,630,o),
(571,507,o),
(571,355,c),
(571,276,l),
(571,124,o),
(448,0,o),
(296,0,c),
(213,0,l)
);
},
{
attr = {
lineCapEnd = 1;
lineCapStart = 1;
strokeHeight = 100;
strokeWidth = 100;
};
closed = 0;
nodes = (
(213,0,l),
(35,630,l)
);
}
);
width = 600;
}
);
unicode = 3591;
}
{
export = 0;
glyphname = "choChing-thai";
layers = (
{
layerId = m002;
shapes = (
{
attr = {
strokeWidth = 1;
};
closed = 0;
nodes = (
(-0.307,5.24,l),
(0.207,5.504,o),
(0.85,5.658,o),
(1.548,5.65,c),
(2.805,5.634,o),
(3.812,4.589,o),
(3.812,3.331,c),
(3.812,2.669,l),
(3.812,1.388,o),
(2.774,0.35,o),
(1.493,0.35,c),
(1.493,0.35,l),
(0.499,0.35,o),
(-0.307,1.156,o),
(-0.307,2.15,c),
(-0.307,3,l)
);
},
{
attr = {
strokeWidth = 1;
};
closed = 0;
nodes = (
(3.811,2.669,l),
(3.811,0.35,l)
);
}
);
width = 600;
}
);
unicode = 3593;
}
{
export = 0;
glyphname = "choChang-thai";
layers = (
{
layerId = m002;
shapes = (
{
attr = {
strokeWidth = 1;
};
closed = 0;
nodes = (
(259,238,l),
(259,107,o),
(153,0,o),
(21,0,c),
(-110,0,o),
(-216,107,o),
(-216,238,c),
(-216,316,o),
(-168,384,o),
(-127,428,c),
(-94,463,o),
(-74,510,o),
(-74,559,c)
);
},
{
attr = {
strokeWidth = 1;
};
closed = 0;
nodes = (
(-74,559,l),
(-74,603,o),
(-108,642,o),
(-157,642,c)
);
},
{
attr = {
strokeWidth = 1;
};
closed = 0;
nodes = (
(-157,642,l),
(-203,642,o),
(-224,642,o),
(-255,622,c)
);
},
{
attr = {
strokeWidth = 1;
};
closed = 0;
nodes = (
(114,467,l),
(194,467,o),
(259,532,o),
(259,613,c),
(259,630,l)
);
},
{
attr = {
strokeWidth = 1;
};
closed = 0;
nodes = (
(114,467,l),
(194,467,o),
(259,402,o),
(259,322,c),
(259,238,l)
);
}
);
width = 600;
}
);
unicode = 3594;
}
{
export = 0;
glyphname = "yoYing-thai";
layers = (
{
layerId = m002;
shapes = (
{
attr = {
lineCapEnd = 1;
lineCapStart = 1;
strokeHeight = 100;
strokeWidth = 100;
};
closed = 0;
nodes = (
(778,219,l),
(778,4,l),
(778,-89,o),
(702,-165,o),
(609,-165,c),
(562,-165,o),
(520,-146,o),
(490,-115,c)
);
},
{
attr = {
lineCapEnd = 1;
lineCapStart = 1;
strokeHeight = 100;
strokeWidth = 100;
};
closed = 0;
nodes = (
(778,580,l),
(778,219,l),
(778,126,o),
(702,50,o),
(609,50,c),
(516,50,o),
(440,126,o),
(440,219,c)
);
},
{
attr = {
lineCapEnd = 1;
lineCapStart = 1;
strokeHeight = 100;
strokeWidth = 100;
};
closed = 0;
nodes = (
(223,55,l),
(199,51,l),
(147,44,o),
(100,84,o),
(100,136,c),
(100,232,l),
(100,312,o),
(160,363,o),
(235,363,c)
);
},
{
attr = {
lineCapEnd = 1;
lineCapStart = 1;
strokeHeight = 100;
strokeWidth = 100;
};
closed = 0;
nodes = (
(103,442,l),
(103,536,o),
(170,580,o),
(270,580,c),
(273,580,l),
(365,580,o),
(440,505,o),
(440,413,c),
(440,219,l)
);
},
{
attr = {
lineCapEnd = 1;
lineCapStart = 1;
strokeHeight = 100;
strokeWidth = 100;
};
closed = 0;
nodes = (
(235,363,l),
(103,442,l)
);
}
);
width = 878;
}
);
metricLeft = "=50";
metricRight = "=50";
unicode = 3597;
}
{
export = 0;
glyphname = "thoThong-thai";
layers = (
{
layerId = m002;
shapes = (
{
attr = {
lineCapEnd = 1;
lineCapStart = 1;
strokeHeight = 100;
strokeWidth = 100;
};
closed = 0;
nodes = (
(100,95,l),
(136,64,o),
(175,50,o),
(264,50,cs),
(309,50,ls),
(382,50,o),
(441,110,o),
(441,183,cs),
(441,256,o),
(382,315,o),
(309,315,cs),
(219,315,ls),
(146,315,o),
(87,375,o),
(87,448,cs),
(87,521,o),
(146,580,o),
(219,580,cs),
(264,580,ls),
(353,580,o),
(392,566,o),
(429,536,c)
);
},
{
attr = {
lineCapEnd = 1;
lineCapStart = 1;
strokeHeight = 100;
strokeWidth = 100;
};
closed = 0;
nodes = (
(100,195,l),
(100,95,l)
);
}
);
width = 510;
}
);
metricLeft = "=50";
metricRight = "=50";
unicode = 3608;
}
{
export = 0;
glyphname = "phoPhung-thai";
layers = (
{
layerId = m002;
shapes = (
{
attr = {
strokeWidth = 1;
};
closed = 0;
nodes = (
(100,0,l),
(100,5,l)
);
},
{
attr = {
strokeWidth = 1;
};
closed = 0;
nodes = (
(104,0,l),
(102,4,l)
);
},
{
attr = {
strokeWidth = 1;
};
closed = 0;
nodes = (
(100,5,l),
(100,5,o),
(100,6,o),
(101,6,c),
(101,6,o),
(101,6,o),
(101,6,c)
);
},
{
attr = {
strokeWidth = 1;
};
closed = 0;
nodes = (
(102,4,l),
(100,0,l)
);
},
{
attr = {
strokeWidth = 1;
};
closed = 0;
nodes = (
(104,6,l),
(104,0,l)
);
}
);
width = 600;
}
);
unicode = 3612;
}
{
export = 0;
glyphname = "loChula-thai";
layers = (
{
layerId = m002;
shapes = (
{
attr = {
lineCapEnd = "1";
lineCapStart = "1";
strokeHeight = 100;
strokeWidth = 100;
};
closed = 0;
nodes = (
(232,50,l),
(100,580,l)
);
},
{
attr = {
lineCapEnd = "1";
lineCapStart = "1";
strokeHeight = 100;
strokeWidth = 100;
};
closed = 0;
nodes = (
(497,50,l),
(365,440,l)
);
},
{
attr = {
lineCapEnd = "1";
lineCapStart = "1";
strokeHeight = 100;
strokeWidth = 100;
};
closed = 0;
nodes = (
(365,440,l),
(232,50,l)
);
},
{
attr = {
lineCapEnd = "1";
lineCapStart = "1";
strokeHeight = 100;
strokeWidth = 100;
};
closed = 0;
nodes = (
(497,50,l),
(605,481,l),
(621,544,o),
(573,605,o),
(508,605,c)
);
},
{
attr = {
lineCapEnd = "1";
lineCapStart = "1";
strokeHeight = 100;
strokeWidth = 100;
};
closed = 0;
nodes = (
(534,605,l),
(606,605,o),
(664,664,o),
(664,735,cs),
(664,775,l)
);
},
{
attr = {
lineCapEnd = "1";
lineCapStart = "1";
strokeHeight = 100;
strokeWidth = 100;
};
closed = 0;
nodes = (
(534,605,l),
(438,605,l)
);
}
);
width = 764;
}
);
metricLeft = "=50";
metricRight = "=50";
unicode = 3628;
}
{
glyphname = quoteleft;
kernLeft = quote;
kernRight = quote;
layers = (
{
layerId = m002;
shapes = (
{
attr = {
lineCapEnd = "1";
lineCapStart = "1";
strokeHeight = 100;
strokeWidth = 100;
};
closed = 0;
nodes = (
(80,630,l),
(140,850,l)
);
}
);
width = 220;
}
);
unicode = 8216;
}
{
glyphname = eightsuperior;
layers = (
{
layerId = m002;
shapes = (
{
attr = {
identifier = ID0x15af80e70;
lineCapEnd = 1;
lineCapStart = 1;
strokeHeight = 100;
strokeWidth = 100;
};
closed = 0;
nodes = (
(265,750,l),
(320,750,o),
(365,705,o),
(365,650,c),
(365,595,o),
(320,550,o),
(265,550,c),
(200,550,l),
(145,550,o),
(100,595,o),
(100,650,c),
(100,705,o),
(145,750,o),
(200,750,c)
);
},
{
attr = {
identifier = ID0x15af80e70;
lineCapEnd = 1;
lineCapStart = 1;
strokeHeight = 100;
strokeWidth = 100;
};
closed = 0;
nodes = (
(200,750,l),
(145,750,o),
(100,795,o),
(100,850,c),
(100,905,o),
(145,950,o),
(200,950,c),
(265,950,l),
(320,950,o),
(365,905,o),
(365,850,c),
(365,795,o),
(320,750,o),
(265,750,c)
);
},
{
attr = {
identifier = ID0x15af80e70;
lineCapEnd = 1;
lineCapStart = 1;
strokeHeight = 100;
strokeWidth = 100;
};
closed = 0;
nodes = (
(200,750,l),
(265,750,l)
);
}
);
width = 465;
}
);
metricLeft = eight;
metricRight = eight;
unicode = 8312;
}
{
glyphname = fourinferior;
layers = (
{
layerId = m002;
shapes = (
{
attr = {
identifier = ID0x15af82c70;
lineCapEnd = 1;
lineCapStart = 1;
strokeHeight = 100;
strokeWidth = 100;
};
closed = 0;
nodes = (
(314,350,l),
(100,82,l)
);
},
{
attr = {
identifier = ID0x15af82c70;
lineCapEnd = 1;
lineCapStart = 1;
strokeHeight = 100;
strokeWidth = 100;
};
closed = 0;
nodes = (
(100,82,l),
(365,82,l)
);
},
{
attr = {
identifier = ID0x15af82c70;
lineCapEnd = 1;
lineCapStart = 1;
strokeHeight = 100;
strokeWidth = 100;
};
closed = 0;
nodes = (
(314,-50,l),
(314,350,l)
);
}
);
width = 455;
}
);
metricLeft = four;
metricRight = four;
unicode = 8324;
}
{
glyphname = fiveinferior;
layers = (
{
layerId = m002;
shapes = (
{
attr = {
identifier = ID0x15af83100;
lineCapEnd = 1;
lineCapStart = 1;
strokeHeight = 100;
strokeWidth = 100;
};
closed = 0;
nodes = (
(100,-16,l),
(128,-39,o),
(154,-50,o),
(221,-50,c),
(232,-50,l),
(295,-50,o),
(345,1,o),
(345,63,c),
(345,125,o),
(295,175,o),
(232,175,c),
(100,175,l)
);
},
{
attr = {
identifier = ID0x15af83100;
lineCapEnd = 1;
lineCapStart = 1;
strokeHeight = 100;
strokeWidth = 100;
};
closed = 0;
nodes = (
(100,350,l),
(345,350,l)
);
},
{
attr = {
identifier = ID0x15af83100;
lineCapEnd = 1;
lineCapStart = 1;
strokeHeight = 100;
strokeWidth = 100;
};
closed = 0;
nodes = (
(100,175,l),
(100,350,l)
);
}
);
width = 445;
}
);
metricLeft = five;
metricRight = five;
unicode = 8325;
}
{
glyphname = trademark;
layers = (
{
layerId = m002;
shapes = (
{
attr = {
lineCapEnd = 1;
lineCapStart = 1;
strokeHeight = 100;
strokeWidth = 100;
};
closed = 0;
nodes = (
(451,850,l),
(625,550,l)
);
},
{
attr = {
lineCapEnd = 1;
lineCapStart = 1;
strokeHeight = 100;
strokeWidth = 100;
};
closed = 0;
nodes = (
(100,850,l),
(331,850,l)
);
},
{
attr = {
lineCapEnd = 1;
lineCapStart = 1;
strokeHeight = 100;
strokeWidth = 100;
};
closed = 0;
nodes = (
(215,550,l),
(215,850,l)
);
},
{
attr = {
lineCapEnd = 1;
lineCapStart = 1;
strokeHeight = 100;
strokeWidth = 100;
};
closed = 0;
nodes = (
(800,850,l),
(800,550,l)
);
},
{
attr = {
lineCapEnd = 1;
lineCapStart = 1;
strokeHeight = 100;
strokeWidth = 100;
};
closed = 0;
nodes = (
(451,550,l),
(451,850,l)
);
},
{
attr = {
lineCapEnd = 1;
lineCapStart = 1;
strokeHeight = 100;
strokeWidth = 100;
};
closed = 0;
nodes = (
(625,550,l),
(800,850,l)
);
}
);
width = 900;
}
);
unicode = 8482;
}
{
glyphname = rightArrow;
layers = (
{
layerId = m002;
shapes = (
{
attr = {
lineCapEnd = 1;
lineCapStart = 1;
strokeHeight = 100;
strokeWidth = 100;
};
closed = 0;
nodes = (
(535,50,l),
(800,315,l)
);
},
{
attr = {
lineCapEnd = 1;
lineCapStart = 1;
strokeHeight = 100;
strokeWidth = 100;
};
closed = 0;
nodes = (
(800,315,l),
(100,315,l)
);
},
{
attr = {
lineCapEnd = 1;
lineCapStart = 1;
strokeHeight = 100;
strokeWidth = 100;
};
closed = 0;
nodes = (
(800,315,l),
(535,580,l)
);
}
);
width = 900;
}
);
unicode = 8594;
}
{
glyphname = infinity;
layers = (
{
layerId = m002;
shapes = (
{
attr = {
strokeHeight = 100;
strokeWidth = 100;
};
closed = 1;
nodes = (
(431,210,o),
(488,296,o),
(548,395,c),
(608,494,o),
(665,580,o),
(811,580,c),
(914,580,o),
(996,497,o),
(996,395,c),
(996,293,o),
(914,210,o),
(811,210,c),
(665,210,o),
(608,296,o),
(548,395,c),
(488,494,o),
(431,580,o),
(285,580,c),
(182,580,o),
(100,497,o),
(100,395,c),
(100,293,o),
(182,210,o),
(285,210,c)
);
}
);
width = 1096;
}
);
unicode = 8734;
}
{
glyphname = integral;
layers = (
{
layerId = m002;
shapes = (
{
attr = {
lineCapEnd = 1;
lineCapStart = 1;
strokeHeight = 100;
strokeWidth = 100;
};
closed = 0;
nodes = (
(532,812,l),
(509,836,o),
(477,850,o),
(442,850,c),
(372,850,o),
(316,793,o),
(316,722,c),
(316,-92,l),
(316,-163,o),
(260,-220,o),
(190,-220,c),
(155,-220,o),
(123,-206,o),
(100,-182,c)
);
}
);
width = 632;
}
);
unicode = 8747;
}
{
glyphname = notequal;
layers = (
{
layerId = m002;
shapes = (
{
attr = {
lineCapEnd = 1;
lineCapStart = 1;
strokeHeight = 100;
strokeWidth = 100;
};
closed = 0;
nodes = (
(100,165,l),
(600,165,l)
);
},
{
attr = {
lineCapEnd = 1;
lineCapStart = 1;
strokeHeight = 100;
strokeWidth = 100;
};
closed = 0;
nodes = (
(100,465,l),
(600,465,l)
);
},
{
attr = {
lineCapEnd = 1;
lineCapStart = 1;
strokeHeight = 100;
strokeWidth = 100;
};
closed = 0;
nodes = (
(250,5,l),
(450,635,l)
);
}
);
width = 700;
}
);
unicode = 8800;
}
{
glyphname = crossMark;
layers = (
{
layerId = m002;
shapes = (
{
attr = {
lineCapEnd = 1;
lineCapStart = 1;
strokeHeight = 100;
strokeWidth = 100;
};
closed = 0;
nodes = (
(100,-70,l),
(1020,850,l)
);
},
{
attr = {
lineCapEnd = 1;
lineCapStart = 1;
strokeHeight = 100;
strokeWidth = 100;
};
closed = 0;
nodes = (
(100,850,l),
(1020,-70,l)
);
}
);
width = 1120;
}
);
unicode = 10060;
}
{
glyphname = rightLongArrow;
layers = (
{
layerId = m002;
shapes = (
{
attr = {
lineCapEnd = "1";
lineCapStart = "1";
strokeHeight = 100;
strokeWidth = 100;
};
closed = 0;
nodes = (
(1085,50,l),
(1350,315,l)
);
},
{
attr = {
lineCapEnd = "1";
lineCapStart = "1";
strokeHeight = 100;
strokeWidth = 100;
};
closed = 0;
nodes = (
(1350,315,l),
(100,315,l)
);
},
{
attr = {
lineCapEnd = "1";
lineCapStart = "1";
strokeHeight = 100;
strokeWidth = 100;
};
closed = 0;
nodes = (
(1350,315,l),
(1085,580,l)
);
}
);
width = 1450;
}
);
unicode = 10230;
}
{
glyphname = whiteMediumStar;
layers = (
{
layerId = m002;
shapes = (
{
attr = {
strokeHeight = 100;
strokeWidth = 100;
};
closed = 1;
nodes = (
(661,533,l),
(666,519,o),
(679,510,o),
(694,510,c),
(960,510,l),
(993,510,o),
(1007,468,o),
(980,448,c),
(765,292,l),
(753,283,o),
(748,268,o),
(752,254,c),
(835,1,l),
(845,-31,o),
(809,-57,o),
(782,-38,c),
(567,119,l),
(555,128,o),
(539,128,o),
(527,119,c),
(311,-38,l),
(285,-57,o),
(249,-31,o),
(259,1,c),
(341,254,l),
(346,268,o),
(341,283,o),
(329,292,c),
(114,448,l),
(87,468,o),
(101,510,o),
(134,510,c),
(400,510,l),
(414,510,o),
(428,519,o),
(432,533,c),
(514,786,l),
(525,818,o),
(569,818,o),
(579,786,c)
);
}
);
width = 1094;
}
);
unicode = 11088;
}
{
glyphname = anglebracketleft;
kernRight = parenthesis;
layers = (
{
layerId = m002;
shapes = (
{
attr = {
lineCapEnd = 1;
lineCapStart = 1;
strokeHeight = 100;
strokeWidth = 100;
};
closed = 0;
nodes = (
(260,850,l),
(100,370,l)
);
},
{
attr = {
lineCapEnd = 1;
lineCapStart = 1;
strokeHeight = 100;
strokeWidth = 100;
};
closed = 0;
nodes = (
(100,370,l),
(260,-110,l)
);
}
);
width = 360;
}
);
unicode = 12296;
}
{
glyphname = fi;
layers = (
{
anchors = (
{
name = caret_1;
pos = (321,0);
}
);
layerId = m002;
shapes = (
{
attr = {
lineCapEnd = 1;
lineCapStart = 1;
strokeHeight = 100;
strokeWidth = 100;
};
closed = 0;
nodes = (
(100,580,l),
(542,580,l)
);
},
{
attr = {
lineCapEnd = 1;
lineCapStart = 1;
strokeHeight = 100;
strokeWidth = 100;
};
closed = 0;
nodes = (
(207,50,l),
(207,710,l),
(207,788,o),
(270,850,o),
(347,850,c),
(400,850,l),
(469,850,o),
(513,830,o),
(542,792,c)
);
},
{
attr = {
lineCapEnd = 1;
lineCapStart = 1;
strokeHeight = 100;
strokeWidth = 100;
};
closed = 0;
nodes = (
(542,580,l),
(542,50,l)
);
}
);
width = 647;
}
);
metricLeft = f;
metricRight = i;
unicode = 64257;
}
{
glyphname = eyes;
layers = (
{
layerId = m002;
shapes = (
{
attr = {
strokeHeight = 100;
strokeWidth = 100;
};
closed = 1;
nodes = (
(560,136,o),
(457,-70,o),
(330,-70,c),
(203,-70,o),
(100,136,o),
(100,390,c),
(100,644,o),
(203,850,o),
(330,850,c),
(457,850,o),
(560,644,o),
(560,390,c)
);
},
{
attr = {
strokeHeight = 100;
strokeWidth = 100;
};
closed = 1;
nodes = (
(1020,136,o),
(917,-70,o),
(790,-70,c),
(663,-70,o),
(560,136,o),
(560,390,c),
(560,644,o),
(663,850,o),
(790,850,c),
(917,850,o),
(1020,644,o),
(1020,390,c)
);
},
{
attr = {
strokeHeight = 100;
strokeWidth = 100;
};
closed = 1;
nodes = (
(840,313,o),
(777,250,o),
(700,250,c),
(623,250,o),
(560,313,o),
(560,390,c),
(560,468,o),
(623,530,o),
(700,530,c),
(777,530,o),
(840,468,o),
(840,390,c)
);
},
{
attr = {
strokeHeight = 100;
strokeWidth = 100;
};
closed = 1;
nodes = (
(380,313,o),
(317,250,o),
(240,250,c),
(163,250,o),
(100,313,o),
(100,390,c),
(100,468,o),
(163,530,o),
(240,530,c),
(317,530,o),
(380,468,o),
(380,390,c)
);
}
);
width = 1120;
}
);
unicode = 128064;
}
{
glyphname = gemStone;
layers = (
{
layerId = m002;
shapes = (
{
attr = {
lineCapEnd = 1;
lineCapStart = 1;
strokeHeight = 100;
strokeWidth = 100;
};
closed = 0;
nodes = (
(309,750,l),
(809,750,l)
);
},
{
attr = {
lineCapEnd = 1;
lineCapStart = 1;
strokeHeight = 100;
strokeWidth = 100;
};
closed = 0;
nodes = (
(1020,558,l),
(559,78,l)
);
},
{
attr = {
lineCapEnd = 1;
lineCapStart = 1;
strokeHeight = 100;
strokeWidth = 100;
};
closed = 0;
nodes = (
(809,750,l),
(1020,558,l)
);
},
{
attr = {
lineCapEnd = 1;
lineCapStart = 1;
strokeHeight = 100;
strokeWidth = 100;
};
closed = 0;
nodes = (
(559,78,l),
(100,558,l)
);
},
{
attr = {
lineCapEnd = 1;
lineCapStart = 1;
strokeHeight = 100;
strokeWidth = 100;
};
closed = 0;
nodes = (
(100,558,l),
(309,750,l)
);
}
);
width = 1120;
}
);
unicode = 128142;
}
{
glyphname = closedBook;
layers = (
{
layerId = m002;
shapes = (
{
attr = {
strokeHeight = 100;
strokeWidth = 100;
};
closed = 1;
nodes = (
(140,850,l),
(118,850,o),
(100,832,o),
(100,810,c),
(100,-30,l),
(100,-52,o),
(118,-70,o),
(140,-70,c),
(760,-70,l),
(782,-70,o),
(800,-52,o),
(800,-30,c),
(800,810,l),
(800,832,o),
(782,850,o),
(760,850,c)
);
},
{
attr = {
strokeHeight = 100;
strokeWidth = 100;
};
closed = 0;
nodes = (
(300,850,l),
(300,-70,l)
);
}
);
width = 900;
}
);
unicode = 128213;
}
{
glyphname = radioButton;
layers = (
{
layerId = m002;
shapes = (
{
ref = mediumWhiteCircle;
},
{
attr = {
strokeHeight = 100;
strokeWidth = 100;
};
closed = 1;
nodes = (
(671,190,o),
(760,280,o),
(760,390,c),
(760,501,o),
(671,590,o),
(560,590,c),
(450,590,o),
(360,501,o),
(360,390,cs),
(360,280,o),
(450,190,o),
(560,190,c)
);
}
);
width = 1120;
}
);
unicode = 128280;
}
{
glyphname = largeOrangeDiamond;
layers = (
{
layerId = m002;
shapes = (
{
attr = {
lineCapEnd = 1;
lineCapStart = 1;
strokeHeight = 100;
strokeWidth = 100;
};
closed = 0;
nodes = (
(100,390,l),
(560,-70,l)
);
},
{
attr = {
lineCapEnd = 1;
lineCapStart = 1;
strokeHeight = 100;
strokeWidth = 100;
};
closed = 0;
nodes = (
(1020,390,l),
(560,850,l)
);
},
{
attr = {
lineCapEnd = 1;
lineCapStart = 1;
strokeHeight = 100;
strokeWidth = 100;
};
closed = 0;
nodes = (
(560,-70,l),
(1020,390,l)
);
},
{
attr = {
lineCapEnd = 1;
lineCapStart = 1;
strokeHeight = 100;
strokeWidth = 100;
};
closed = 0;
nodes = (
(560,850,l),
(100,390,l)
);
}
);
width = 1120;
}
);
unicode = 128310;
}
{
glyphname = grinningFaceWithSmilingEyes;
kernLeft = emojiRound;
kernRight = emojiRound;
layers = (
{
layerId = m002;
shapes = (
{
attr = {
strokeHeight = 100;
strokeWidth = 100;
};
closed = 1;
nodes = (
(815,-70,o),
(1020,136,o),
(1020,391,c),
(1020,645,o),
(815,850,o),
(561,850,c),
(306,850,o),
(100,645,o),
(100,391,c),
(100,136,o),
(306,-70,o),
(561,-70,c)
);
},
{
attr = {
lineCapEnd = 1;
lineCapStart = 1;
strokeHeight = 100;
strokeWidth = 100;
};
closed = 0;
nodes = (
(268,391,l),
(268,229,o),
(399,98,o),
(561,98,c),
(722,98,o),
(852,229,o),
(852,391,c)
);
},
{
attr = {
lineCapEnd = 1;
lineCapStart = 1;
strokeHeight = 100;
strokeWidth = 100;
};
closed = 0;
nodes = (
(852,391,l),
(852,391,o),
(734,296,o),
(561,296,c),
(388,296,o),
(268,391,o),
(268,391,c)
);
},
{
attr = {
lineCapEnd = 1;
lineCapStart = 1;
strokeHeight = 100;
strokeWidth = 100;
};
closed = 0;
nodes = (
(485,520,l),
(446,608,l),
(431,640,o),
(385,640,o),
(370,608,c),
(331,520,l)
);
},
{
attr = {
lineCapEnd = 1;
lineCapStart = 1;
strokeHeight = 100;
strokeWidth = 100;
};
closed = 0;
nodes = (
(791,520,l),
(752,608,l),
(737,640,o),
(691,640,o),
(676,608,c),
(637,520,l)
);
}
);
width = 1120;
}
);
unicode = 128513;
}
{
glyphname = BangladeshFlag;
layers = (
{
layerId = m002;
shapes = (
{
attr = {
strokeWidth = 100;
};
closed = 1;
nodes = (
(662,327,o),
(590,242,o),
(501,226,c),
(411,211,o),
(339,270,o),
(339,360,c),
(339,449,o),
(411,534,o),
(501,550,c),
(590,566,o),
(662,506,o),
(662,417,c)
);
},
{
attr = {
lineCapEnd = 1;
lineCapStart = 1;
strokeWidth = 100;
};
closed = 0;
nodes = (
(100,680,l),
(100,120,l)
);
},
{
attr = {
lineCapEnd = 1;
lineCapStart = 1;
strokeWidth = 100;
};
closed = 0;
nodes = (
(1020,120,l),
(962,135,o),
(905,150,o),
(790,150,c),
(590,150,o),
(530,90,o),
(330,90,c),
(215,90,o),
(157,105,o),
(100,120,c)
);
},
{
attr = {
lineCapEnd = 1;
lineCapStart = 1;
strokeWidth = 100;
};
closed = 0;
nodes = (
(1020,680,l),
(962,695,o),
(905,710,o),
(790,710,c),
(590,710,o),
(530,650,o),
(330,650,c),
(215,650,o),
(157,665,o),
(100,680,c)
);
},
{
attr = {
lineCapEnd = 1;
lineCapStart = 1;
strokeWidth = 100;
};
closed = 0;
nodes = (
(1020,680,l),
(1020,120,l)
);
}
);
width = 1120;
}
);
}
{
glyphname = FranceFlag;
layers = (
{
layerId = m002;
shapes = (
{
attr = {
lineCapEnd = 1;
lineCapStart = 1;
strokeWidth = 100;
};
closed = 0;
nodes = (
(407,653,l),
(407,93,l)
);
},
{
attr = {
lineCapEnd = 1;
lineCapStart = 1;
strokeWidth = 100;
};
closed = 0;
nodes = (
(713,707,l),
(713,147,l)
);
},
{
attr = {
lineCapEnd = "1";
lineCapStart = "1";
strokeWidth = 100;
};
closed = 0;
nodes = (
(1020,680,l),
(962,695,o),
(905,710,o),
(790,710,c),
(590,710,o),
(530,650,o),
(330,650,c),
(215,650,o),
(157,665,o),
(100,680,c)
);
},
{
attr = {
lineCapEnd = "1";
lineCapStart = "1";
strokeWidth = 100;
};
closed = 0;
nodes = (
(1020,120,l),
(962,135,o),
(905,150,o),
(790,150,c),
(590,150,o),
(530,90,o),
(330,90,c),
(215,90,o),
(157,105,o),
(100,120,c)
);
},
{
attr = {
lineCapEnd = "1";
lineCapStart = "1";
strokeWidth = 100;
};
closed = 0;
nodes = (
(100,680,l),
(100,120,l)
);
},
{
attr = {
lineCapEnd = "1";
lineCapStart = "1";
strokeWidth = 100;
};
closed = 0;
nodes = (
(1020,120,l),
(1020,680,l)
);
}
);
width = 1120;
}
);
}
{
glyphname = JapanFlag;
layers = (
{
layerId = m002;
shapes = (
{
attr = {
strokeWidth = 100;
};
closed = 1;
nodes = (
(707,345,o),
(641,268,o),
(560,253,c),
(479,239,o),
(413,293,o),
(413,374,c),
(413,455,o),
(479,532,o),
(560,547,c),
(641,561,o),
(707,507,o),
(707,426,c)
);
},
{
attr = {
lineCapEnd = 1;
lineCapStart = 1;
strokeWidth = 100;
};
closed = 0;
nodes = (
(100,680,l),
(100,120,l)
);
},
{
attr = {
lineCapEnd = 1;
lineCapStart = 1;
strokeWidth = 100;
};
closed = 0;
nodes = (
(1020,120,l),
(962,135,o),
(905,150,o),
(790,150,c),
(590,150,o),
(530,90,o),
(330,90,c),
(215,90,o),
(157,105,o),
(100,120,c)
);
},
{
attr = {
lineCapEnd = 1;
lineCapStart = 1;
strokeWidth = 100;
};
closed = 0;
nodes = (
(1020,680,l),
(962,695,o),
(905,710,o),
(790,710,c),
(590,710,o),
(530,650,o),
(330,650,c),
(215,650,o),
(157,665,o),
(100,680,c)
);
},
{
attr = {
lineCapEnd = 1;
lineCapStart = 1;
strokeWidth = 100;
};
closed = 0;
nodes = (
(1020,680,l),
(1020,120,l)
);
}
);
width = 1120;
}
);
}
{
glyphname = Lslash.001;
layers = (
{
layerId = m002;
shapes = (
{
ref = L;
},
{
attr = {
lineCapEnd = "1";
lineCapStart = "1";
strokeHeight = 100;
strokeWidth = 100;
};
closed = 0;
nodes = (
(280,580,l),
(0,450,l)
);
}
);
width = 600;
}
);
}
{
glyphname = MauritiusFlag;
layers = (
{
layerId = m002;
shapes = (
{
attr = {
lineCapEnd = 1;
lineCapStart = 1;
strokeWidth = 100;
};
closed = 0;
nodes = (
(1020,120,l),
(1020,680,l)
);
},
{
attr = {
lineCapEnd = 1;
lineCapStart = 1;
strokeWidth = 100;
};
closed = 0;
nodes = (
(100,680,l),
(100,120,l)
);
},
{
attr = {
lineCapEnd = 1;
lineCapStart = 1;
strokeWidth = 100;
};
closed = 0;
nodes = (
(1020,120,l),
(962,135,o),
(905,150,o),
(790,150,c),
(590,150,o),
(530,90,o),
(330,90,c),
(215,90,o),
(157,105,o),
(100,120,c)
);
},
{
attr = {
lineCapEnd = 1;
lineCapStart = 1;
strokeWidth = 100;
};
closed = 0;
nodes = (
(1020,680,l),
(962,695,o),
(905,710,o),
(790,710,c),
(590,710,o),
(530,650,o),
(330,650,c),
(215,650,o),
(157,665,o),
(100,680,c)
);
},
{
attr = {
lineCapEnd = 1;
lineCapStart = 1;
strokeWidth = 100;
};
closed = 0;
nodes = (
(1020,260,l),
(962,275,o),
(905,290,o),
(790,290,c),
(590,290,o),
(530,230,o),
(330,230,c),
(215,230,o),
(157,245,o),
(100,260,c)
);
},
{
attr = {
lineCapEnd = 1;
lineCapStart = 1;
strokeWidth = 100;
};
closed = 0;
nodes = (
(1020,540,l),
(962,555,o),
(905,570,o),
(790,570,c),
(590,570,o),
(530,510,o),
(330,510,c),
(215,510,o),
(157,525,o),
(100,540,c)
);
},
{
attr = {
lineCapEnd = 1;
lineCapStart = 1;
strokeWidth = 100;
};
closed = 0;
nodes = (
(1020,400,l),
(962,415,o),
(905,430,o),
(790,430,c),
(590,430,o),
(530,370,o),
(330,370,c),
(215,370,o),
(157,385,o),
(100,400,c)
);
}
);
width = 1120;
}
);
}
{
glyphname = PalauFlag;
layers = (
{
layerId = m002;
shapes = (
{
attr = {
identifier = ID0x2b4c52420;
lineCapEnd = 1;
lineCapStart = 1;
strokeWidth = 100;
};
closed = 0;
nodes = (
(100,680,l),
(100,120,l)
);
},
{
attr = {
identifier = ID0x2b4c52420;
lineCapEnd = 1;
lineCapStart = 1;
strokeWidth = 100;
};
closed = 0;
nodes = (
(1020,120,l),
(962,135,o),
(905,150,o),
(790,150,c),
(590,150,o),
(530,90,o),
(330,90,c),
(215,90,o),
(157,105,o),
(100,120,c)
);
},
{
attr = {
identifier = ID0x2b4c52420;
lineCapEnd = 1;
lineCapStart = 1;
strokeWidth = 100;
};
closed = 0;
nodes = (
(1020,680,l),
(962,695,o),
(905,710,o),
(790,710,c),
(590,710,o),
(530,650,o),
(330,650,c),
(215,650,o),
(157,665,o),
(100,680,c)
);
},
{
attr = {
identifier = ID0x2b4c52420;
lineCapEnd = 1;
lineCapStart = 1;
strokeWidth = 100;
};
closed = 0;
nodes = (
(1020,680,l),
(1020,120,l)
);
},
{
attr = {
identifier = ID0x2b4c52420;
strokeWidth = 100;
};
closed = 1;
nodes = (
(598,317,o),
(528,235,o),
(442,220,c),
(356,205,o),
(287,262,o),
(287,348,c),
(287,435,o),
(356,517,o),
(442,532,c),
(528,547,o),
(598,489,o),
(598,403,c)
);
}
);
width = 1120;
}
);
}
{
glyphname = VietnamFlag;
layers = (
{
layerId = m002;
shapes = (
{
attr = {
lineCapEnd = 1;
lineCapStart = 1;
strokeWidth = 100;
};
closed = 0;
nodes = (
(1020,114,l),
(1020,674,l)
);
},
{
attr = {
lineCapEnd = 1;
lineCapStart = 1;
strokeWidth = 100;
};
closed = 0;
nodes = (
(100,686,l),
(100,126,l)
);
},
{
attr = {
lineCapEnd = 1;
lineCapStart = 1;
strokeWidth = 100;
};
closed = 0;
nodes = (
(1020,114,l),
(962,129,o),
(905,144,o),
(790,144,c),
(590,144,o),
(530,84,o),
(330,84,c),
(215,84,o),
(157,99,o),
(100,114,c)
);
},
{
attr = {
lineCapEnd = 1;
lineCapStart = 1;
strokeWidth = 100;
};
closed = 0;
nodes = (
(1020,686,l),
(962,701,o),
(905,716,o),
(790,716,c),
(590,716,o),
(530,656,o),
(330,656,c),
(215,656,o),
(157,671,o),
(100,686,c)
);
},
{
attr = {
lineCapEnd = 1;
lineCapStart = 1;
strokeWidth = 100;
};
closed = 0;
nodes = (
(401,416,l),
(522,438,l)
);
},
{
attr = {
lineCapEnd = 1;
lineCapStart = 1;
strokeWidth = 100;
};
closed = 0;
nodes = (
(598,451,l),
(719,472,l)
);
},
{
attr = {
lineCapEnd = 1;
lineCapStart = 1;
strokeWidth = 100;
};
closed = 0;
nodes = (
(462,240,l),
(499,362,l)
);
},
{
attr = {
lineCapEnd = 1;
lineCapStart = 1;
strokeWidth = 100;
};
closed = 0;
nodes = (
(621,384,l),
(658,275,l)
);
},
{
attr = {
lineCapEnd = 1;
lineCapStart = 1;
strokeWidth = 100;
};
closed = 0;
nodes = (
(560,560,l),
(598,451,l)
);
},
{
attr = {
lineCapEnd = 1;
lineCapStart = 1;
strokeWidth = 100;
};
closed = 0;
nodes = (
(522,438,l),
(560,560,l)
);
},
{
attr = {
lineCapEnd = 1;
lineCapStart = 1;
strokeWidth = 100;
};
closed = 0;
nodes = (
(499,362,l),
(401,416,l)
);
},
{
attr = {
lineCapEnd = 1;
lineCapStart = 1;
strokeWidth = 100;
};
closed = 0;
nodes = (
(719,472,l),
(621,384,l)
);
},
{
attr = {
lineCapEnd = 1;
lineCapStart = 1;
strokeWidth = 100;
};
closed = 0;
nodes = (
(560,329,l),
(462,240,l)
);
},
{
attr = {
lineCapEnd = 1;
lineCapStart = 1;
strokeWidth = 100;
};
closed = 0;
nodes = (
(658,275,l),
(560,329,l)
);
}
);
width = 1120;
}
);
}
{
glyphname = acutecomb.case;
layers = (
{
anchors = (
{
name = _top;
pos = (170,901);
},
{
name = top;
pos = (170,1116);
}
);
layerId = m002;
shapes = (
{
attr = {
lineCapEnd = "1";
lineCapStart = "1";
strokeHeight = 100;
strokeWidth = 100;
};
closed = 0;
nodes = (
(100,1016,l),
(240,1066,l)
);
}
);
width = 340;
}
);
}
{
color = 10;
glyphname = anglebracketleft.case;
kernRight = parenthesis;
layers = (
{
layerId = m002;
shapes = (
{
attr = {
lineCapEnd = "1";
lineCapStart = "1";
strokeHeight = 100;
strokeWidth = 100;
};
closed = 0;
nodes = (
(260,930,l),
(100,450,l)
);
},
{
attr = {
lineCapEnd = "1";
lineCapStart = "1";
strokeHeight = 100;
strokeWidth = 100;
};
closed = 0;
nodes = (
(100,450,l),
(260,-30,l)
);
}
);
width = 360;
}
);
}
{
glyphname = brevecomb.case;
layers = (
{
anchors = (
{
name = _top;
pos = (280,901);
},
{
name = top;
pos = (280,1172);
}
);
layerId = m002;
shapes = (
{
attr = {
lineCapEnd = "1";
lineCapStart = "1";
strokeHeight = 100;
strokeWidth = 100;
};
closed = 0;
nodes = (
(140,1121,l),
(140,1044,o),
(203,981,o),
(280,981,c),
(358,981,o),
(420,1044,o),
(420,1121,c)
);
}
);
width = 600;
}
);
}
{
glyphname = caroncomb.case;
layers = (
{
anchors = (
{
name = _top;
pos = (280,901);
},
{
name = top;
pos = (280,1116);
}
);
layerId = m002;
shapes = (
{
attr = {
lineCapEnd = "1";
lineCapStart = "1";
strokeHeight = 100;
strokeWidth = 100;
};
closed = 0;
nodes = (
(280,1016,l),
(190,1066,l)
);
},
{
attr = {
lineCapEnd = "1";
lineCapStart = "1";
strokeHeight = 100;
strokeWidth = 100;
};
closed = 0;
nodes = (
(370,1066,l),
(280,1016,l)
);
}
);
width = 560;
}
);
}
{
glyphname = dieresiscomb.case;
layers = (
{
anchors = (
{
name = _top;
pos = (280,901);
},
{
name = top;
pos = (280,1121);
}
);
layerId = m002;
shapes = (
{
attr = {
fill = 1;
};
closed = 1;
nodes = (
(492,1088,o),
(459,1121,o),
(417,1121,c),
(376,1121,o),
(342,1088,o),
(342,1046,c),
(342,1005,o),
(376,971,o),
(417,971,c),
(459,971,o),
(492,1005,o),
(492,1046,c)
);
},
{
attr = {
fill = 1;
};
closed = 1;
nodes = (
(217,1088,o),
(184,1121,o),
(142,1121,c),
(101,1121,o),
(67,1088,o),
(67,1046,c),
(67,1005,o),
(101,971,o),
(142,971,c),
(184,971,o),
(217,1005,o),
(217,1046,c)
);
}
);
width = 560;
}
);
}
{
glyphname = dotaccentcomb.case;
layers = (
{
anchors = (
{
name = _top;
pos = (105,901);
},
{
name = top;
pos = (105,1140);
}
);
layerId = m002;
shapes = (
{
attr = {
fill = 1;
};
closed = 1;
nodes = (
(180,1088,o),
(147,1121,o),
(105,1121,c),
(64,1121,o),
(30,1088,o),
(30,1046,c),
(30,1005,o),
(64,971,o),
(105,971,c),
(147,971,o),
(180,1005,o),
(180,1046,c)
);
}
);
width = 183;
}
);
}
{
color = 10;
glyphname = emdash.case;
kernLeft = dash;
kernRight = dash;
layers = (
{
layerId = m002;
shapes = (
{
attr = {
lineCapEnd = "1";
lineCapStart = "1";
strokeHeight = 100;
strokeWidth = 100;
};
closed = 0;
nodes = (
(100,450,l),
(800,450,l)
);
}
);
width = 900;
}
);
}
{
glyphname = gravecomb.case;
layers = (
{
anchors = (
{
name = _top;
pos = (280,901);
},
{
name = top;
pos = (280,1116);
}
);
layerId = m002;
shapes = (
{
attr = {
lineCapEnd = 1;
lineCapStart = 1;
strokeHeight = 100;
strokeWidth = 100;
};
closed = 0;
nodes = (
(350,1016,l),
(210,1066,l)
);
}
);
width = 560;
}
);
}
{
glyphname = hyphen_hyphen_hyphen;
kernLeft = dash;
kernRight = dash;
layers = (
{
layerId = m002;
shapes = (
{
attr = {
lineCapEnd = "1";
lineCapStart = "1";
strokeHeight = 100;
strokeWidth = 100;
};
closed = 0;
nodes = (
(100,315,l),
(1700,315,l)
);
}
);
width = 1800;
}
);
}
{
glyphname = keycapDigitEight;
kernLeft = emojiSquare;
kernRight = emojiSquare;
layers = (
{
layerId = m002;
shapes = (
{
attr = {
strokeHeight = 100;
strokeWidth = 100;
};
closed = 1;
nodes = (
(240,850,l),
(163,850,o),
(100,787,o),
(100,710,c),
(100,70,l),
(100,-7,o),
(163,-70,o),
(240,-70,c),
(880,-70,l),
(958,-70,o),
(1020,-7,o),
(1020,70,c),
(1020,710,l),
(1020,787,o),
(958,850,o),
(880,850,c)
);
},
{
attr = {
strokeHeight = 100;
strokeWidth = 100;
};
closed = 0;
nodes = (
(515,390,l),
(438,390,o),
(375,327,o),
(375,250,c),
(375,250,l),
(375,173,o),
(438,110,o),
(515,110,c),
(606,110,l),
(683,110,o),
(746,173,o),
(746,250,c),
(746,250,l),
(746,327,o),
(683,390,o),
(606,390,c)
);
},
{
attr = {
strokeHeight = 100;
strokeWidth = 100;
};
closed = 0;
nodes = (
(606,390,l),
(683,390,o),
(746,453,o),
(746,530,c),
(746,530,l),
(746,607,o),
(683,670,o),
(606,670,c),
(515,670,l),
(438,670,o),
(375,607,o),
(375,530,c),
(375,530,l),
(375,453,o),
(438,390,o),
(515,390,c)
);
},
{
attr = {
strokeHeight = 100;
strokeWidth = 100;
};
closed = 0;
nodes = (
(515,390,l),
(606,390,l)
);
}
);
width = 1120;
}
);
}
{
glyphname = keycapDigitFive;
kernLeft = emojiSquare;
kernRight = emojiSquare;
layers = (
{
layerId = m002;
shapes = (
{
attr = {
strokeHeight = 100;
strokeWidth = 100;
};
closed = 1;
nodes = (
(240,850,l),
(163,850,o),
(100,787,o),
(100,710,c),
(100,70,l),
(100,-7,o),
(163,-70,o),
(240,-70,c),
(880,-70,l),
(957,-70,o),
(1020,-7,o),
(1020,70,c),
(1020,710,l),
(1020,787,o),
(957,850,o),
(880,850,c)
);
},
{
attr = {
lineCapEnd = 1;
lineCapStart = 1;
strokeHeight = 100;
strokeWidth = 100;
};
closed = 0;
nodes = (
(388,157,l),
(427,125,o),
(465,110,o),
(558,110,c),
(574,110,l),
(661,110,o),
(731,180,o),
(731,267,cs),
(731,354,o),
(661,424,o),
(574,424,c),
(388,424,l)
);
},
{
attr = {
lineCapEnd = 1;
lineCapStart = 1;
strokeHeight = 100;
strokeWidth = 100;
};
closed = 0;
nodes = (
(388,670,l),
(731,670,l)
);
},
{
attr = {
lineCapEnd = 1;
lineCapStart = 1;
strokeHeight = 100;
strokeWidth = 100;
};
closed = 0;
nodes = (
(388,424,l),
(388,670,l)
);
},
{
attr = {
lineCapEnd = 1;
lineCapStart = 1;
strokeHeight = 100;
strokeWidth = 100;
};
closed = 1;
nodes = (
(731,267,l)
);
}
);
width = 1120;
}
);
}
{
glyphname = keycapDigitFour;
kernLeft = emojiSquare;
kernRight = emojiSquare;
layers = (
{
layerId = m002;
shapes = (
{
attr = {
strokeHeight = 100;
strokeWidth = 100;
};
closed = 1;
nodes = (
(240,850,l),
(162,850,o),
(100,787,o),
(100,710,c),
(100,70,l),
(100,-7,o),
(162,-70,o),
(240,-70,c),
(880,-70,l),
(957,-70,o),
(1020,-7,o),
(1020,70,c),
(1020,710,l),
(1020,787,o),
(957,850,o),
(880,850,c)
);
},
{
attr = {
lineCapEnd = 1;
lineCapStart = 1;
strokeHeight = 100;
strokeWidth = 100;
};
closed = 0;
nodes = (
(675,670,l),
(374,294,l)
);
},
{
attr = {
lineCapEnd = 1;
lineCapStart = 1;
strokeHeight = 100;
strokeWidth = 100;
};
closed = 0;
nodes = (
(675,110,l),
(675,670,l)
);
},
{
attr = {
lineCapEnd = 1;
lineCapStart = 1;
strokeHeight = 100;
strokeWidth = 100;
};
closed = 0;
nodes = (
(374,294,l),
(745,294,l)
);
}
);
width = 1120;
}
);
}
{
glyphname = keycapDigitNine;
kernLeft = emojiSquare;
kernRight = emojiSquare;
layers = (
{
layerId = m002;
shapes = (
{
attr = {
strokeHeight = 100;
strokeWidth = 100;
};
closed = 1;
nodes = (
(240,850,l),
(162,850,o),
(100,787,o),
(100,710,c),
(100,70,l),
(100,-7,o),
(162,-70,o),
(240,-70,c),
(880,-70,l),
(957,-70,o),
(1020,-7,o),
(1020,70,c),
(1020,710,l),
(1020,787,o),
(957,850,o),
(880,850,c)
);
},
{
attr = {
strokeHeight = 100;
strokeWidth = 100;
};
closed = 1;
nodes = (
(374,587,o),
(457,670,o),
(560,670,c),
(662,670,o),
(745,587,o),
(745,485,c),
(745,382,o),
(662,299,o),
(560,299,c),
(457,299,o),
(374,382,o),
(374,485,c)
);
},
{
attr = {
lineCapEnd = 1;
lineCapStart = 1;
strokeHeight = 100;
strokeWidth = 100;
};
closed = 0;
nodes = (
(390,178,l),
(421,138,o),
(468,110,o),
(546,110,c),
(560,110,l),
(662,110,o),
(745,193,o),
(745,296,c),
(745,485,l)
);
}
);
width = 1120;
}
);
}
{
export = 0;
glyphname = keycapDigitSeven;
kernLeft = emojiSquare;
kernRight = emojiSquare;
layers = (
{
layerId = m002;
shapes = (
{
attr = {
strokeHeight = 100;
strokeWidth = 100;
};
closed = 1;
nodes = (
(240,850,l),
(163,850,o),
(100,787,o),
(100,710,c),
(100,70,l),
(100,-7,o),
(163,-70,o),
(240,-70,c),
(880,-70,l),
(958,-70,o),
(1020,-7,o),
(1020,70,c),
(1020,710,l),
(1020,787,o),
(958,850,o),
(880,850,c)
);
},
{
attr = {
lineCapEnd = 1;
lineCapStart = 1;
strokeHeight = 100;
strokeWidth = 100;
};
closed = 0;
nodes = (
(444,110,l),
(746,670,l)
);
},
{
attr = {
lineCapEnd = 1;
lineCapStart = 1;
strokeHeight = 100;
strokeWidth = 100;
};
closed = 0;
nodes = (
(746,670,l),
(375,670,l)
);
}
);
width = 1120;
}
);
}
{
glyphname = keycapDigitThree;
kernLeft = emojiSquare;
kernRight = emojiSquare;
layers = (
{
layerId = m002;
shapes = (
{
attr = {
strokeHeight = 100;
strokeWidth = 100;
};
closed = 1;
nodes = (
(240,850,l),
(162,850,o),
(100,787,o),
(100,710,c),
(100,70,l),
(100,-7,o),
(162,-70,o),
(240,-70,c),
(880,-70,l),
(957,-70,o),
(1020,-7,o),
(1020,70,c),
(1020,710,l),
(1020,787,o),
(957,850,o),
(880,850,c)
);
},
{
attr = {
lineCapEnd = 1;
lineCapStart = 1;
strokeHeight = 100;
strokeWidth = 100;
};
closed = 0;
nodes = (
(392,157,l),
(430,125,o),
(472,110,o),
(566,110,c),
(588,110,l),
(665,110,o),
(728,173,o),
(728,250,c),
(728,250,l),
(728,327,o),
(665,390,o),
(588,390,c)
);
},
{
attr = {
lineCapEnd = 1;
lineCapStart = 1;
strokeHeight = 100;
strokeWidth = 100;
};
closed = 0;
nodes = (
(392,623,l),
(430,656,o),
(472,670,o),
(566,670,c),
(588,670,l),
(665,670,o),
(728,607,o),
(728,530,c),
(728,530,l),
(728,453,o),
(665,390,o),
(588,390,c)
);
},
{
attr = {
lineCapEnd = 1;
lineCapStart = 1;
strokeHeight = 100;
strokeWidth = 100;
};
closed = 0;
nodes = (
(480,390,l),
(588,390,l)
);
}
);
width = 1120;
}
);
}
{
glyphname = keycapDigitZero;
kernLeft = emojiSquare;
kernRight = emojiSquare;
layers = (
{
layerId = m002;
shapes = (
{
attr = {
strokeHeight = 100;
strokeWidth = 100;
};
closed = 1;
nodes = (
(241,850,l),
(164,850,o),
(101,787,o),
(101,710,c),
(101,70,l),
(101,-7,o),
(164,-70,o),
(241,-70,c),
(881,-70,l),
(958,-70,o),
(1021,-7,o),
(1021,70,c),
(1021,710,l),
(1021,787,o),
(958,850,o),
(881,850,c)
);
},
{
attr = {
strokeHeight = 100;
strokeWidth = 100;
};
closed = 0;
nodes = (
(703,604,l),
(419,176,l)
);
},
{
attr = {
strokeHeight = 100;
strokeWidth = 100;
};
closed = 1;
nodes = (
(459,110,o),
(376,193,o),
(376,296,c),
(376,485,l),
(376,587,o),
(459,670,o),
(561,670,c),
(561,670,l),
(664,670,o),
(747,587,o),
(747,485,c),
(747,296,l),
(747,193,o),
(664,110,o),
(561,110,c)
);
}
);
width = 1120;
}
);
}
{
glyphname = keycapNumberSign;
kernLeft = emojiSquare;
kernRight = emojiSquare;
layers = (
{
layerId = m002;
shapes = (
{
attr = {
strokeHeight = 100;
strokeWidth = 100;
};
closed = 1;
nodes = (
(240,850,l),
(163,850,o),
(100,787,o),
(100,710,c),
(100,70,l),
(100,-7,o),
(163,-70,o),
(240,-70,c),
(880,-70,l),
(958,-70,o),
(1020,-7,o),
(1020,70,c),
(1020,710,l),
(1020,787,o),
(958,850,o),
(880,850,c)
);
},
{
attr = {
lineCapEnd = 1;
lineCapStart = 1;
strokeHeight = 100;
strokeWidth = 100;
};
closed = 0;
nodes = (
(414,110,l),
(512,670,l)
);
},
{
attr = {
lineCapEnd = 1;
lineCapStart = 1;
strokeHeight = 100;
strokeWidth = 100;
};
closed = 0;
nodes = (
(609,110,l),
(708,670,l)
);
},
{
attr = {
lineCapEnd = 1;
lineCapStart = 1;
strokeHeight = 100;
strokeWidth = 100;
};
closed = 0;
nodes = (
(363,272,l),
(716,272,l)
);
},
{
attr = {
lineCapEnd = 1;
lineCapStart = 1;
strokeHeight = 100;
strokeWidth = 100;
};
closed = 0;
nodes = (
(405,508,l),
(758,508,l)
);
}
);
width = 1120;
}
);
}
{
glyphname = macroncomb.case;
layers = (
{
anchors = (
{
name = _top;
pos = (340,901);
},
{
name = top;
pos = (340,1116);
}
);
layerId = m002;
shapes = (
{
attr = {
lineCapEnd = 1;
lineCapStart = 1;
strokeHeight = 100;
strokeWidth = 100;
};
closed = 0;
nodes = (
(190,1066,l),
(490,1066,l)
);
}
);
width = 680;
}
);
}
{
glyphname = ringcomb.case;
layers = (
{
anchors = (
{
name = _top;
pos = (280,901);
},
{
name = top;
pos = (282,1140);
}
);
layerId = m002;
shapes = (
{
attr = {
strokeHeight = 100;
strokeWidth = 100;
};
closed = 1;
nodes = (
(370,1116,o),
(330,1156,o),
(280,1156,c),
(231,1156,o),
(190,1116,o),
(190,1066,c),
(190,1016,o),
(231,976,o),
(280,976,c),
(330,976,o),
(370,1016,o),
(370,1066,c)
);
}
);
width = 560;
}
);
}
{
glyphname = tonos.case;
layers = (
{
anchors = (
{
name = _topleft;
pos = (434,900);
}
);
layerId = m002;
shapes = (
{
attr = {
lineCapEnd = "1";
lineCapStart = "1";
strokeHeight = 100;
strokeWidth = 100;
};
closed = 0;
nodes = (
(296,745,l),
(366,850,l)
);
}
);
width = 662;
}
);
}
{
glyphname = y.ss03;
kernLeft = lowercaseX;
kernRight = lowercaseX;
layers = (
{
anchors = (
{
name = bottom;
pos = (451,0);
},
{
name = top;
pos = (300,630);
}
);
layerId = m002;
shapes = (
{
attr = {
lineCapEnd = 1;
lineCapStart = 1;
strokeHeight = 100;
strokeWidth = 100;
};
closed = 0;
nodes = (
(313,50,l),
(100,580,l)
);
},
{
attr = {
lineCapEnd = 1;
lineCapStart = 1;
strokeHeight = 100;
strokeWidth = 100;
};
closed = 0;
nodes = (
(500,580,l),
(246,-140,l),
(229,-188,o),
(184,-220,o),
(133,-220,c),
(100,-220,l)
);
}
);
width = 600;
}
);
}
